<svg width="93" height="93" viewBox="0 0 93 93" fill="none" xmlns="http://www.w3.org/2000/svg">
<rect x="0.691406" y="0.435608" width="92.0039" height="92.0039" rx="46.002" fill="#F0F0F0"/>
<rect x="65.2168" y="9.63593" width="5.48655" height="47.7666" rx="2.74328" transform="rotate(30 65.2168 9.63593)" fill="#8E8E8E"/>
<rect x="60.3516" y="21.624" width="5.48655" height="14.0095" rx="2" transform="rotate(-60 60.3516 21.624)" fill="#8E8E8E"/>
<path d="M57.3863 29.6287C56.4298 29.0764 56.102 27.8533 56.6543 26.8967L57.3976 25.6093C57.9499 24.6527 59.173 24.3249 60.1296 24.8772L68.8104 29.8891C69.767 30.4414 70.0948 31.6646 69.5425 32.6211L68.7992 33.9085C68.2469 34.8651 67.0237 35.1929 66.0671 34.6406L57.3863 29.6287Z" fill="#8E8E8E"/>
<circle cx="36.8643" cy="63.6726" r="14.8741" fill="#F6F6F6" stroke="#8E8E8E" stroke-width="5"/>
</svg>
