<svg width="101" height="56" viewBox="0 0 101 56" fill="none" xmlns="http://www.w3.org/2000/svg">
<rect x="0.470703" width="100" height="56" fill="#DFDFDF"/>
<path d="M0.470703 0H100.471L58.1881 25.3695C53.4379 28.2197 47.5035 28.2197 42.7533 25.3695L0.470703 0Z" fill="#F0F0F0"/>
<path d="M49.3918 19.2284C49.6208 18.3405 50.8818 18.3405 51.1108 19.2284L51.5382 20.8852C52.3235 23.9295 54.7008 26.3069 57.7452 27.0922C59.0746 27.4351 59.0746 29.323 57.7452 29.6659C54.7008 30.4513 52.3235 32.8286 51.5382 35.8729L51.3552 36.5823C51.061 37.7226 49.4416 37.7226 49.1474 36.5823L48.8223 35.322C48.1247 32.6176 46.0128 30.5057 43.3083 29.8081C41.8321 29.4273 41.8321 27.3309 43.3083 26.9501C46.0128 26.2524 48.1247 24.1405 48.8223 21.4361L49.3918 19.2284Z" fill="#272727"/>
</svg>
