<svg width="112" height="118" viewBox="0 0 112 118" fill="none" xmlns="http://www.w3.org/2000/svg">
<path d="M7.48926 57.7698L56 62.2813L55.9893 117.27L7.48926 112.77V57.7698Z" fill="#C3C3C3"/>
<path d="M104.489 57.7698L56 62.2813L55.9893 117.27L104.489 112.77V57.7698Z" fill="#D5D5D5"/>
<path d="M7.48926 57.7698L56 62.2813L50.3501 84.75L7.48926 80.2698V57.7698Z" fill="#9A9A9A"/>
<path d="M104.511 57.7698L56 62.2813L61.6499 84.7501L104.511 80.2698V57.7698Z" fill="#B7B7B7"/>
<path d="M7.48926 57.7698L56 62.2813L48.7393 77.5198L0.239258 73.0198L7.48926 57.7698Z" fill="#DEDEDE"/>
<path d="M63.25 77.5198L111.761 73.0084L104.5 57.7698L56 62.2698L63.25 77.5198Z" fill="#DEDEDE"/>
<path d="M7.48926 57.7698L56 53.25L103.781 57.7698L56 62.2813L7.48926 57.7698Z" fill="#ACACAC"/>
<path d="M69.478 57.943L70.7569 56.6642L86.4242 72.3314L85.1453 73.6103L69.478 57.943Z" fill="#6B6B6B"/>
<path d="M70.1169 31.7249C77.1804 38.7884 77.1807 50.2403 70.1176 57.3034C63.0544 64.3666 51.6025 64.3663 44.539 57.3028C37.4755 50.2393 37.4752 38.7874 44.5384 31.7242C51.6015 24.6611 63.0534 24.6614 70.1169 31.7249Z" fill="#F5F5F5" fill-opacity="0.73"/>
<path d="M73.7329 51.5157C72.8628 53.4007 71.6518 55.1671 70.0981 56.7208C63.035 63.784 51.5825 63.7843 44.519 56.7208C42.9887 55.1905 41.7906 53.4537 40.9233 51.6007L57.9038 50.0187L73.7329 51.5157Z" fill="#ACACAC"/>
<path d="M45.2446 32.4312C51.9172 25.7586 62.7367 25.7591 69.4097 32.4322C76.0825 39.1052 76.0822 49.9237 69.4097 56.5962C62.7371 63.2688 51.9186 63.2691 45.2456 56.5962C38.5726 49.9232 38.572 39.1038 45.2446 32.4312Z" stroke="#6B6B6B" stroke-width="2"/>
<rect x="49.5498" y="38.857" width="3" height="19" transform="rotate(-45 49.5498 38.857)" fill="#E48181"/>
<rect x="62.9849" y="36.7357" width="3" height="19" transform="rotate(45 62.9849 36.7357)" fill="#E48181"/>
<path d="M65.2639 16.4619L65.318 16.2668C65.6849 14.9977 66.0925 14.02 66.5409 13.3336C66.9962 12.6492 67.5142 12.1369 68.0951 11.7969C68.6759 11.4569 69.3377 11.1835 70.0805 10.9769C70.5633 10.8308 71.0135 10.6424 71.4313 10.4119C71.849 10.1814 72.2116 9.88403 72.5191 9.51974C72.8266 9.15545 73.0505 8.72008 73.1911 8.21365C73.3601 7.60456 73.3626 7.03772 73.1986 6.51312C73.0346 5.98852 72.7463 5.53999 72.3337 5.16754C71.9298 4.79014 71.437 4.52073 70.8553 4.35932C70.3284 4.2131 69.795 4.18302 69.2551 4.26909C68.7153 4.35517 68.2234 4.58721 67.7795 4.96523C67.3375 5.3364 66.9918 5.87806 66.7426 6.5902L63.6219 5.72427C64.0116 4.5057 64.6117 3.55186 65.422 2.86275C66.2342 2.16681 67.1733 1.73086 68.2393 1.55492C69.3121 1.38088 70.4234 1.45337 71.5731 1.7724C72.8324 2.12181 73.8687 2.66365 74.6821 3.39792C75.4974 4.12535 76.0483 4.98211 76.3349 5.96821C76.6302 6.94936 76.623 7.9977 76.3135 9.11322C76.1008 9.87972 75.7893 10.5377 75.3788 11.0872C74.9703 11.6298 74.4771 12.0789 73.8994 12.4345C73.3285 12.7921 72.6838 13.0702 71.9653 13.2688C71.2829 13.4701 70.7063 13.7155 70.2353 14.0049C69.7712 14.2963 69.3829 14.6861 69.0706 15.1743C68.7582 15.6625 68.486 16.2983 68.2539 17.0815L68.1998 17.2765L65.2639 16.4619ZM65.0821 23.1335C64.5209 22.9777 64.0935 22.6454 63.7999 22.1364C63.5081 21.6206 63.4411 21.0787 63.5987 20.5107C63.7544 19.9495 64.0892 19.5264 64.6031 19.2415C65.1189 18.9498 65.6574 18.8818 66.2186 19.0375C66.773 19.1913 67.196 19.5261 67.4877 20.0419C67.7882 20.5528 67.8606 21.0888 67.7049 21.65C67.6005 22.0264 67.4087 22.3455 67.1298 22.6071C66.8595 22.8638 66.5448 23.0418 66.1856 23.1411C65.8263 23.2405 65.4585 23.2379 65.0821 23.1335Z" fill="#E48181"/>
<path d="M42.1948 2.5362L48.7855 16.6158L46.1355 17.9143L39.0474 4.07847L42.1948 2.5362ZM50.3154 23.0792C49.7861 23.3386 49.2426 23.3755 48.6851 23.19C48.1244 22.9981 47.7176 22.6359 47.4646 22.1034C47.2019 21.5836 47.1681 21.0465 47.3631 20.4922C47.555 19.9315 47.9157 19.5215 48.445 19.2621C48.9616 19.009 49.5003 18.9784 50.0609 19.1703C50.6185 19.3558 51.0286 19.7085 51.2912 20.2283C51.4567 20.5822 51.5221 20.9496 51.4872 21.3305C51.4557 21.7019 51.3386 22.044 51.136 22.3568C50.9333 22.6696 50.6598 22.9104 50.3154 23.0792Z" fill="#E48181"/>
</svg>
