<svg width="206" height="120" viewBox="0 0 206 120" fill="none" xmlns="http://www.w3.org/2000/svg">
<rect x="67.7119" y="1.62854" width="138" height="20" rx="6" fill="#E2E2E2"/>
<rect x="67.7119" y="27.75" width="77.75" height="11.25" rx="3" fill="#E2E2E2"/>
<rect x="0.0488281" y="0.25" width="55" height="55" rx="11" fill="#E5E5E5"/>
<path d="M12.5397 29.6584C14.4778 27.7359 17.6069 27.7464 19.5321 29.6819C21.4621 31.6222 24.6007 31.6273 26.5369 29.6932L33.3103 22.9271C35.2411 20.9985 38.3616 20.9742 40.3221 22.8725L50.1782 32.416C51.151 33.3579 51.7001 34.6541 51.7001 36.0081V39.5C51.7001 42.2614 49.4615 44.5 46.7001 44.5H9.71804C5.25377 44.5 3.02737 39.0941 6.19682 35.9502L12.5397 29.6584Z" fill="#D4D4D4"/>
<path d="M22.1389 16.3536C22.1389 19.2669 19.7772 21.6286 16.8639 21.6286C13.9506 21.6286 11.5889 19.2669 11.5889 16.3536C11.5889 13.4403 13.9506 11.0786 16.8639 11.0786C19.7772 11.0786 22.1389 13.4403 22.1389 16.3536Z" fill="#D4D4D4"/>
<rect x="67.7119" y="65.6285" width="138" height="20" rx="6" fill="#E2E2E2"/>
<rect x="67.7119" y="91.75" width="77.75" height="11.25" rx="3" fill="#E2E2E2"/>
<rect x="0.0488281" y="64.25" width="55" height="55" rx="11" fill="#E5E5E5"/>
<path d="M12.5397 93.6584C14.4778 91.7359 17.6069 91.7464 19.5321 93.6819C21.4621 95.6222 24.6007 95.6273 26.5369 93.6932L33.3103 86.9271C35.2411 84.9985 38.3616 84.9742 40.3221 86.8725L50.1782 96.416C51.151 97.3579 51.7001 98.6541 51.7001 100.008V103.5C51.7001 106.261 49.4615 108.5 46.7001 108.5H9.71804C5.25377 108.5 3.02737 103.094 6.19682 99.9502L12.5397 93.6584Z" fill="#D4D4D4"/>
<path d="M22.1389 80.3536C22.1389 83.2669 19.7772 85.6286 16.8639 85.6286C13.9506 85.6286 11.5889 83.2669 11.5889 80.3536C11.5889 77.4403 13.9506 75.0786 16.8639 75.0786C19.7772 75.0786 22.1389 77.4403 22.1389 80.3536Z" fill="#D4D4D4"/>
<path d="M50.2979 60.6361L51.5767 59.3572L67.244 75.0245L65.9651 76.3034L50.2979 60.6361Z" fill="#6B6B6B"/>
<path d="M50.9368 34.4181C58.0003 41.4816 58.0006 52.9336 50.9374 59.9967C43.8743 67.0599 32.4224 67.0596 25.3588 59.9961C18.2953 52.9326 18.2951 41.4807 25.3582 34.4175C32.4214 27.3544 43.8733 27.3546 50.9368 34.4181Z" fill="#F5F5F5"/>
<path d="M49.1294 49.6923V44.2588C49.1294 42.1519 48.2749 40.135 46.7612 38.6694L37.6448 29.8421C17.9607 34.6603 20.5131 50.2699 24.2498 57.4725H41.3492C45.6461 57.4725 49.1294 53.9892 49.1294 49.6923Z" fill="#D9D9D9"/>
<path d="M26.0649 35.1242C32.7375 28.4516 43.557 28.4522 50.23 35.1252C56.9029 41.7982 56.9025 52.6167 50.23 59.2893C43.5574 65.9618 32.7389 65.9621 26.0659 59.2893C19.3929 52.6163 19.3924 41.7968 26.0649 35.1242Z" stroke="#6B6B6B" stroke-width="2"/>
</svg>
