<svg width="21" height="21" viewBox="0 0 21 21" fill="none" xmlns="http://www.w3.org/2000/svg">
<path d="M10.0788 9.20876H11.3531V7.29753H13.2644V6.02338H11.3531V4.11215H10.0788V6.02338H8.16752V7.29753H10.0788V9.20876ZM7.53041 14.9424C6.82959 14.9424 6.26257 15.5158 6.26257 16.2166C6.26257 16.9174 6.82959 17.4907 7.53041 17.4907C8.23123 17.4907 8.80462 16.9174 8.80462 16.2166C8.80462 15.5158 8.23123 14.9424 7.53041 14.9424ZM13.9015 14.9424C13.2007 14.9424 12.6336 15.5158 12.6336 16.2166C12.6336 16.9174 13.2007 17.4907 13.9015 17.4907C14.6023 17.4907 15.1757 16.9174 15.1757 16.2166C15.1757 15.5158 14.6023 14.9424 13.9015 14.9424ZM7.63872 12.8719L7.65783 12.7955L8.23123 11.7571H12.9777C13.4555 11.7571 13.876 11.4959 14.0926 11.1009L16.5519 6.63497L15.4433 6.02338H15.4369L14.7361 7.29753L12.9777 10.4829H8.50518L8.42236 10.3109L6.99524 7.29753L6.38999 6.02338L5.79111 4.74923H3.70776V6.02338H4.98198L7.27557 10.8588L6.41547 12.4196C6.31353 12.598 6.25619 12.8082 6.25619 13.0312C6.25619 13.732 6.82959 14.3054 7.53041 14.3054H15.1757V13.0312H7.79799C7.71517 13.0312 7.63872 12.9611 7.63872 12.8719Z" fill="#272727"/>
</svg>
