<svg width="26" height="26" viewBox="0 0 26 26" fill="none" xmlns="http://www.w3.org/2000/svg">
<path d="M4.59351 7.88767H21.2845V19.2117C21.282 21.2457 19.6354 22.8939 17.6037 22.8964H8.27458C6.24258 22.8939 4.59598 21.2457 4.59351 19.2119V19.2117V7.88767ZM19.544 9.62985H6.33399V19.2117C6.33546 20.2839 7.20342 21.1527 8.27444 21.1542H17.6034C18.6746 21.1527 19.5426 20.2839 19.544 19.2118V19.2117V9.62985ZM17.1335 11.25H15.393V7.09495C15.393 5.73831 14.2943 4.63851 12.939 4.63851C11.5836 4.63851 10.4849 5.73831 10.4849 7.09495V11.25H8.74453V7.09495C8.74453 4.77615 10.6225 2.89636 12.9391 2.89636C15.2556 2.89636 17.1336 4.77615 17.1336 7.09499L17.1335 11.25Z" fill="#272727"/>
</svg>
