<svg width="26" height="25" viewBox="0 0 26 25" fill="none" xmlns="http://www.w3.org/2000/svg">
<path d="M8.70847 18.2143C7.6608 18.2143 6.81314 19.0714 6.81314 20.1191C6.81314 21.1667 7.6608 22.0238 8.70847 22.0238C9.75614 22.0238 10.6133 21.1667 10.6133 20.1191C10.6133 19.0714 9.75614 18.2143 8.70847 18.2143ZM18.2328 18.2143C17.1851 18.2143 16.3374 19.0714 16.3374 20.1191C16.3374 21.1667 17.1851 22.0238 18.2328 22.0238C19.2804 22.0238 20.1376 21.1667 20.1376 20.1191C20.1376 19.0714 19.2804 18.2143 18.2328 18.2143ZM8.87038 15.1191L8.89895 15.0048L9.75614 13.4524H16.8517C17.5661 13.4524 18.1947 13.0619 18.5185 12.4714L22.1949 5.79524L20.5376 4.88096H20.5281L19.4804 6.78572L16.8517 11.5476H10.1657L10.0419 11.2905L7.90843 6.78572L7.00362 4.88096L6.10834 2.9762H2.9939V4.88096H4.89875L8.3275 12.1095L7.04172 14.4429C6.88933 14.7095 6.80361 15.0238 6.80361 15.3571C6.80361 16.4048 7.6608 17.2619 8.70847 17.2619H20.1376V15.3571H9.10849C8.98467 15.3571 8.87038 15.2524 8.87038 15.1191Z" fill="#272727"/>
</svg>
