<svg width="19" height="19" viewBox="0 0 19 19" fill="none" xmlns="http://www.w3.org/2000/svg">
<path d="M10 8.53915V11.6373H14.3054C14.1164 12.6337 13.549 13.4774 12.6981 14.0446L15.2945 16.0592C16.8072 14.6629 17.68 12.6119 17.68 10.1756C17.68 9.60833 17.6291 9.06282 17.5345 8.53923L10 8.53915Z" fill="#4285F4"/>
<path d="M5.51674 11.5164L4.93116 11.9646L2.8584 13.5792C4.17476 16.19 6.87274 17.9937 9.99999 17.9937C12.1599 17.9937 13.9708 17.281 15.2945 16.0592L12.6981 14.0446C11.9854 14.5246 11.0763 14.8156 9.99999 14.8156C7.92 14.8156 6.15278 13.4119 5.52001 11.521L5.51674 11.5164Z" fill="#34A853"/>
<path d="M2.85812 6.40826C2.31269 7.48458 2 8.69914 2 9.99366C2 11.2882 2.31269 12.5028 2.85812 13.5791C2.85812 13.5863 5.51998 11.5136 5.51998 11.5136C5.35998 11.0336 5.26541 10.5246 5.26541 9.99358C5.26541 9.4626 5.35998 8.95354 5.51998 8.47354L2.85812 6.40826Z" fill="#FBBC05"/>
<path d="M10.0002 5.17917C11.1784 5.17917 12.2256 5.58643 13.062 6.37189L15.3529 4.08101C13.9638 2.78649 12.1602 1.99371 10.0002 1.99371C6.8729 1.99371 4.17476 3.79007 2.8584 6.40826L5.52018 8.47372C6.15287 6.58279 7.92016 5.17917 10.0002 5.17917Z" fill="#EA4335"/>
</svg>
