<svg width="129" height="36" viewBox="0 0 129 36" fill="none" xmlns="http://www.w3.org/2000/svg">
<path d="M110.966 1.53194C111.398 -0.139636 113.771 -0.139632 114.203 1.53194L115.007 4.65109C116.486 10.3825 120.961 14.8581 126.693 16.3366C129.196 16.9822 129.196 20.5364 126.693 21.182C120.961 22.6605 116.486 27.1361 115.007 32.8675L114.663 34.2028C114.109 36.3498 111.06 36.3498 110.506 34.2028L109.894 31.8303C108.581 26.7388 104.605 22.7629 99.5136 21.4496C96.7344 20.7326 96.7344 16.7859 99.5136 16.069C104.605 14.7556 108.581 10.7797 109.894 5.68826L110.966 1.53194Z" fill="#414141"/>
<path d="M0.966309 9.37453H3.80131V15.4435H10.3113V9.37453H13.1463V24.0745H10.3113V17.8165H3.80131V24.0745H0.966309V9.37453Z" fill="#272727"/>
<path d="M20.6395 24.2215C19.5895 24.2215 18.6655 23.9905 17.8675 23.5285C17.0695 23.0665 16.4465 22.4225 15.9985 21.5965C15.5645 20.7705 15.3475 19.8185 15.3475 18.7405C15.3475 17.7045 15.5645 16.7875 15.9985 15.9895C16.4325 15.1915 17.0345 14.5685 17.8045 14.1205C18.5885 13.6585 19.4775 13.4275 20.4715 13.4275C21.4795 13.4275 22.3685 13.6445 23.1385 14.0785C23.9085 14.5125 24.5035 15.1215 24.9235 15.9055C25.3575 16.6755 25.5745 17.5785 25.5745 18.6145C25.5745 18.7685 25.5605 18.9435 25.5325 19.1395C25.5185 19.3215 25.4975 19.5175 25.4695 19.7275H18.2455C18.3015 20.1755 18.4415 20.5605 18.6655 20.8825C18.9035 21.1905 19.1905 21.4355 19.5265 21.6175C19.8765 21.7855 20.2685 21.8695 20.7025 21.8695C21.2205 21.8695 21.6825 21.7645 22.0885 21.5545C22.5085 21.3305 22.8095 21.0435 22.9915 20.6935L25.3855 21.4075C24.9655 22.3035 24.3355 22.9965 23.4955 23.4865C22.6695 23.9765 21.7175 24.2215 20.6395 24.2215ZM22.6345 17.7745C22.6205 17.3825 22.5155 17.0325 22.3195 16.7245C22.1235 16.4025 21.8645 16.1575 21.5425 15.9895C21.2205 15.8075 20.8635 15.7165 20.4715 15.7165C20.1215 15.7165 19.7925 15.8075 19.4845 15.9895C19.1765 16.1715 18.9105 16.4165 18.6865 16.7245C18.4765 17.0185 18.3365 17.3685 18.2665 17.7745H22.6345Z" fill="#272727"/>
<path d="M33.7975 24.0745L33.5875 22.7935C33.2375 23.2275 32.8385 23.5705 32.3905 23.8225C31.9565 24.0745 31.3685 24.2005 30.6265 24.2005C29.9265 24.2005 29.3105 24.0815 28.7785 23.8435C28.2605 23.5915 27.8545 23.2485 27.5605 22.8145C27.2665 22.3665 27.1195 21.8415 27.1195 21.2395C27.1195 20.3575 27.4345 19.6295 28.0645 19.0555C28.7085 18.4675 29.6745 18.0965 30.9625 17.9425L33.5875 17.6485V16.9135C33.5875 16.6195 33.4545 16.3465 33.1885 16.0945C32.9225 15.8425 32.5025 15.7165 31.9285 15.7165C31.4245 15.7165 30.9835 15.8425 30.6055 16.0945C30.2415 16.3325 29.9965 16.6965 29.8705 17.1865L27.5605 16.3465C27.8405 15.4085 28.3725 14.6875 29.1565 14.1835C29.9405 13.6795 30.9065 13.4275 32.0545 13.4275C33.4545 13.4275 34.5045 13.7775 35.2045 14.4775C35.9185 15.1635 36.2755 16.0735 36.2755 17.2075V24.0745H33.7975ZM33.5875 19.5175L31.3195 19.8115C30.8575 19.8675 30.5075 20.0075 30.2695 20.2315C30.0315 20.4415 29.9125 20.7005 29.9125 21.0085C29.9125 21.3025 30.0315 21.5545 30.2695 21.7645C30.5075 21.9605 30.8435 22.0585 31.2775 22.0585C31.7675 22.0585 32.1805 21.9675 32.5165 21.7855C32.8665 21.6035 33.1325 21.3375 33.3145 20.9875C33.4965 20.6375 33.5875 20.2035 33.5875 19.6855V19.5175Z" fill="#272727"/>
<path d="M46.3617 15.1495L46.0257 15.1915V8.95453H48.7137V24.0745H46.2777L46.1097 22.7725C45.7737 23.1645 45.3257 23.5075 44.7657 23.8015C44.2197 24.0815 43.5827 24.2215 42.8547 24.2215C41.9447 24.2215 41.1397 23.9975 40.4397 23.5495C39.7397 23.1015 39.1937 22.4785 38.8017 21.6805C38.4097 20.8685 38.2137 19.9165 38.2137 18.8245C38.2137 17.7325 38.4097 16.7805 38.8017 15.9685C39.1937 15.1565 39.7397 14.5335 40.4397 14.0995C41.1397 13.6515 41.9447 13.4275 42.8547 13.4275C43.6807 13.4275 44.3877 13.5955 44.9757 13.9315C45.5777 14.2675 46.0397 14.6735 46.3617 15.1495ZM41.1117 18.8245C41.1117 19.7065 41.3357 20.4205 41.7837 20.9665C42.2317 21.4985 42.8197 21.7645 43.5477 21.7645C43.9957 21.7645 44.4017 21.6525 44.7657 21.4285C45.1437 21.1905 45.4447 20.8545 45.6687 20.4205C45.9067 19.9865 46.0257 19.4545 46.0257 18.8245C46.0257 18.1945 45.9067 17.6625 45.6687 17.2285C45.4447 16.7945 45.1437 16.4655 44.7657 16.2415C44.4017 16.0035 43.9957 15.8845 43.5477 15.8845C42.8197 15.8845 42.2317 16.1575 41.7837 16.7035C41.3357 17.2355 41.1117 17.9425 41.1117 18.8245Z" fill="#272727"/>
<path d="M53.6415 22.4995L53.9775 22.4575V28.2745H51.2895V13.5745H53.7255L53.8935 14.8765C54.2015 14.4705 54.6355 14.1275 55.1955 13.8475C55.7555 13.5675 56.3995 13.4275 57.1275 13.4275C58.0375 13.4275 58.8425 13.6515 59.5425 14.0995C60.2425 14.5475 60.7885 15.1775 61.1805 15.9895C61.5865 16.7875 61.7895 17.7325 61.7895 18.8245C61.7895 19.9165 61.5865 20.8685 61.1805 21.6805C60.7885 22.4925 60.2425 23.1225 59.5425 23.5705C58.8565 24.0045 58.0515 24.2215 57.1275 24.2215C56.3155 24.2215 55.6085 24.0535 55.0065 23.7175C54.4185 23.3815 53.9635 22.9755 53.6415 22.4995ZM58.8915 18.8245C58.8915 17.9425 58.6605 17.2355 58.1985 16.7035C57.7505 16.1575 57.1625 15.8845 56.4345 15.8845C55.9865 15.8845 55.5735 16.0035 55.1955 16.2415C54.8315 16.4655 54.5375 16.7945 54.3135 17.2285C54.0895 17.6485 53.9775 18.1805 53.9775 18.8245C53.9775 19.4545 54.0895 19.9865 54.3135 20.4205C54.5375 20.8545 54.8315 21.1905 55.1955 21.4285C55.5735 21.6525 55.9865 21.7645 56.4345 21.7645C57.1625 21.7645 57.7505 21.4985 58.1985 20.9665C58.6605 20.4205 58.8915 19.7065 58.8915 18.8245Z" fill="#272727"/>
<path d="M63.8403 8.95453H66.5283V14.6035C66.8503 14.2535 67.2493 13.9735 67.7253 13.7635C68.2153 13.5395 68.7613 13.4275 69.3633 13.4275C70.1613 13.4275 70.8543 13.6025 71.4423 13.9525C72.0443 14.3025 72.5063 14.8135 72.8283 15.4855C73.1503 16.1435 73.3113 16.9625 73.3113 17.9425V24.0745H70.4763V18.2995C70.4763 17.4875 70.3153 16.8785 69.9933 16.4725C69.6713 16.0665 69.1883 15.8635 68.5443 15.8635C67.8863 15.8635 67.3823 16.0875 67.0323 16.5355C66.6963 16.9695 66.5283 17.5925 66.5283 18.4045V24.0745H63.8403V8.95453Z" fill="#272727"/>
<path d="M80.5223 24.2215C79.5003 24.2215 78.5904 24.0045 77.7924 23.5705C76.9944 23.1225 76.3644 22.4995 75.9024 21.7015C75.4544 20.8895 75.2303 19.9375 75.2303 18.8455C75.2303 17.7395 75.4613 16.7805 75.9233 15.9685C76.3993 15.1565 77.0433 14.5335 77.8553 14.0995C78.6673 13.6515 79.5773 13.4275 80.5854 13.4275C81.5933 13.4275 82.5033 13.6515 83.3153 14.0995C84.1273 14.5335 84.7713 15.1565 85.2473 15.9685C85.7233 16.7665 85.9613 17.7115 85.9613 18.8035C85.9613 19.9095 85.7163 20.8685 85.2263 21.6805C84.7503 22.4925 84.0993 23.1225 83.2733 23.5705C82.4613 24.0045 81.5443 24.2215 80.5223 24.2215ZM80.5014 21.8065C80.9354 21.8065 81.3483 21.7015 81.7403 21.4915C82.1323 21.2675 82.4543 20.9385 82.7063 20.5045C82.9583 20.0565 83.0844 19.4895 83.0844 18.8035C83.0844 18.1455 82.9653 17.5995 82.7273 17.1655C82.4893 16.7175 82.1743 16.3885 81.7823 16.1785C81.4043 15.9545 80.9914 15.8425 80.5434 15.8425C80.1093 15.8425 79.7033 15.9545 79.3253 16.1785C78.9613 16.3885 78.6673 16.7175 78.4433 17.1655C78.2333 17.5995 78.1283 18.1595 78.1283 18.8455C78.1283 19.5035 78.2333 20.0565 78.4433 20.5045C78.6533 20.9385 78.9403 21.2675 79.3043 21.4915C79.6683 21.7015 80.0674 21.8065 80.5014 21.8065Z" fill="#272727"/>
<path d="M88.019 13.5745H90.455L90.644 14.6455C90.98 14.2675 91.386 13.9735 91.862 13.7635C92.352 13.5395 92.877 13.4275 93.437 13.4275C94.263 13.4275 94.963 13.6025 95.537 13.9525C96.125 14.3025 96.573 14.8135 96.881 15.4855C97.203 16.1435 97.364 16.9625 97.364 17.9425V24.0745H94.655V18.2995C94.655 17.4875 94.494 16.8785 94.172 16.4725C93.85 16.0665 93.367 15.8635 92.723 15.8635C92.065 15.8635 91.561 16.0735 91.211 16.4935C90.875 16.8995 90.707 17.5085 90.707 18.3205V24.0745H88.019V13.5745Z" fill="#272727"/>
<path d="M104.558 24.2215C103.508 24.2215 102.584 23.9905 101.786 23.5285C100.988 23.0665 100.365 22.4225 99.9165 21.5965C99.4825 20.7705 99.2655 19.8185 99.2655 18.7405C99.2655 17.7045 99.4825 16.7875 99.9165 15.9895C100.351 15.1915 100.953 14.5685 101.723 14.1205C102.507 13.6585 103.396 13.4275 104.39 13.4275C105.398 13.4275 106.287 13.6445 107.057 14.0785C107.827 14.5125 108.422 15.1215 108.842 15.9055C109.276 16.6755 109.493 17.5785 109.493 18.6145C109.493 18.7685 109.479 18.9435 109.451 19.1395C109.437 19.3215 109.416 19.5175 109.388 19.7275H102.164C102.22 20.1755 102.36 20.5605 102.584 20.8825C102.822 21.1905 103.109 21.4355 103.445 21.6175C103.795 21.7855 104.187 21.8695 104.621 21.8695C105.139 21.8695 105.601 21.7645 106.007 21.5545C106.427 21.3305 106.728 21.0435 106.91 20.6935L109.304 21.4075C108.884 22.3035 108.254 22.9965 107.414 23.4865C106.588 23.9765 105.636 24.2215 104.558 24.2215ZM106.553 17.7745C106.539 17.3825 106.434 17.0325 106.238 16.7245C106.042 16.4025 105.783 16.1575 105.461 15.9895C105.139 15.8075 104.782 15.7165 104.39 15.7165C104.04 15.7165 103.711 15.8075 103.403 15.9895C103.095 16.1715 102.829 16.4165 102.605 16.7245C102.395 17.0185 102.255 17.3685 102.185 17.7745H106.553Z" fill="#272727"/>
<path d="M113.431 20.6515C113.515 21.0015 113.655 21.2675 113.851 21.4495C114.061 21.6315 114.292 21.7645 114.544 21.8485C114.81 21.9185 115.076 21.9535 115.342 21.9535C115.832 21.9535 116.217 21.8625 116.497 21.6805C116.777 21.4845 116.917 21.2395 116.917 20.9455C116.917 20.6935 116.819 20.4975 116.623 20.3575C116.427 20.2035 116.175 20.0915 115.867 20.0215C115.559 19.9375 115.244 19.8535 114.922 19.7695C114.544 19.6715 114.138 19.5665 113.704 19.4545C113.284 19.3285 112.885 19.1535 112.507 18.9295C112.129 18.7055 111.814 18.4185 111.562 18.0685C111.31 17.7045 111.184 17.2495 111.184 16.7035C111.184 16.0595 111.359 15.4925 111.709 15.0025C112.073 14.5125 112.57 14.1275 113.2 13.8475C113.844 13.5675 114.586 13.4275 115.426 13.4275C116.42 13.4275 117.26 13.6375 117.946 14.0575C118.632 14.4775 119.129 15.0795 119.437 15.8635L117.064 16.5355C116.994 16.3395 116.875 16.1785 116.707 16.0525C116.539 15.9265 116.336 15.8355 116.098 15.7795C115.874 15.7235 115.643 15.6955 115.405 15.6955C114.999 15.6955 114.663 15.7795 114.397 15.9475C114.131 16.1015 113.998 16.3185 113.998 16.5985C113.998 16.7665 114.047 16.9065 114.145 17.0185C114.243 17.1165 114.376 17.2005 114.544 17.2705C114.726 17.3405 114.929 17.4035 115.153 17.4595C115.391 17.5155 115.65 17.5785 115.93 17.6485C116.364 17.7605 116.798 17.8935 117.232 18.0475C117.68 18.1875 118.086 18.3695 118.45 18.5935C118.828 18.8175 119.129 19.1185 119.353 19.4965C119.577 19.8745 119.703 20.3505 119.731 20.9245C119.731 21.5405 119.556 22.1005 119.206 22.6045C118.856 23.0945 118.352 23.4865 117.694 23.7805C117.036 24.0745 116.238 24.2215 115.3 24.2215C114.208 24.2215 113.277 23.9905 112.507 23.5285C111.751 23.0665 111.254 22.3455 111.016 21.3655L113.431 20.6515Z" fill="#272727"/>
<path d="M104.547 24.2216C103.497 24.2216 102.573 23.9906 101.775 23.5286C100.977 23.0666 100.354 22.4226 99.9056 21.5966C99.4716 20.7706 99.2546 19.8186 99.2546 18.7406C99.2546 17.7046 99.4716 16.7876 99.9056 15.9896C100.34 15.1916 100.942 14.5686 101.712 14.1206C102.496 13.6586 103.385 13.4276 104.379 13.4276C105.387 13.4276 106.276 13.6446 107.046 14.0786C107.816 14.5126 108.411 15.1216 108.831 15.9056C109.265 16.6756 109.482 17.5786 109.482 18.6146C109.482 18.7686 109.468 18.9436 109.44 19.1396C109.426 19.3216 109.405 19.5176 109.377 19.7276H102.153C102.209 20.1756 102.349 20.5606 102.573 20.8826C102.811 21.1906 103.098 21.4356 103.434 21.6176C103.784 21.7856 104.176 21.8696 104.61 21.8696C105.128 21.8696 105.59 21.7646 105.996 21.5546C106.416 21.3306 106.717 21.0436 106.899 20.6936L109.293 21.4076C108.873 22.3036 108.243 22.9966 107.403 23.4866C106.577 23.9766 105.625 24.2216 104.547 24.2216ZM106.542 17.7746C106.528 17.3826 106.423 17.0326 106.227 16.7246C106.031 16.4026 105.772 16.1576 105.45 15.9896C105.128 15.8076 104.771 15.7166 104.379 15.7166C104.029 15.7166 103.7 15.8076 103.392 15.9896C103.084 16.1716 102.818 16.4166 102.594 16.7246C102.384 17.0186 102.244 17.3686 102.174 17.7746H106.542Z" fill="#EAEAEA"/>
<path d="M113.421 20.6516C113.505 21.0016 113.645 21.2676 113.841 21.4496C114.051 21.6316 114.282 21.7646 114.534 21.8486C114.8 21.9186 115.066 21.9536 115.332 21.9536C115.822 21.9536 116.207 21.8626 116.487 21.6806C116.767 21.4846 116.907 21.2396 116.907 20.9456C116.907 20.6936 116.809 20.4976 116.613 20.3576C116.417 20.2036 116.165 20.0916 115.857 20.0216C115.549 19.9376 115.234 19.8536 114.912 19.7696C114.534 19.6716 114.128 19.5666 113.694 19.4546C113.274 19.3286 112.875 19.1536 112.497 18.9296C112.119 18.7056 111.804 18.4186 111.552 18.0686C111.3 17.7046 111.174 17.2496 111.174 16.7036C111.174 16.0596 111.349 15.4926 111.699 15.0026C112.063 14.5126 112.56 14.1276 113.19 13.8476C113.834 13.5676 114.576 13.4276 115.416 13.4276C116.41 13.4276 117.25 13.6376 117.936 14.0576C118.622 14.4776 119.119 15.0796 119.427 15.8636L117.054 16.5356C116.984 16.3396 116.865 16.1786 116.697 16.0526C116.529 15.9266 116.326 15.8356 116.088 15.7796C115.864 15.7236 115.633 15.6956 115.395 15.6956C114.989 15.6956 114.653 15.7796 114.387 15.9476C114.121 16.1016 113.988 16.3186 113.988 16.5986C113.988 16.7666 114.037 16.9066 114.135 17.0186C114.233 17.1166 114.366 17.2006 114.534 17.2706C114.716 17.3406 114.919 17.4036 115.143 17.4596C115.381 17.5156 115.64 17.5786 115.92 17.6486C116.354 17.7606 116.788 17.8936 117.222 18.0476C117.67 18.1876 118.076 18.3696 118.44 18.5936C118.818 18.8176 119.119 19.1186 119.343 19.4966C119.567 19.8746 119.693 20.3506 119.721 20.9246C119.721 21.5406 119.546 22.1006 119.196 22.6046C118.846 23.0946 118.342 23.4866 117.684 23.7806C117.026 24.0746 116.228 24.2216 115.29 24.2216C114.198 24.2216 113.267 23.9906 112.497 23.5286C111.741 23.0666 111.244 22.3456 111.006 21.3656L113.421 20.6516Z" fill="#EAEAEA"/>
<path d="M99.8833 21.5507C101.775 22.0925 103.504 23.0052 104.989 24.206C104.844 24.2155 104.696 24.2216 104.546 24.2216C103.497 24.2216 102.573 23.9902 101.775 23.5283C100.977 23.0663 100.354 22.4226 99.9058 21.5966C99.8979 21.5816 99.8911 21.5658 99.8833 21.5507ZM104.378 13.4277C104.529 13.4277 104.677 13.4336 104.823 13.4433C103.387 14.5704 101.731 15.432 99.9253 15.955C100.358 15.1738 100.953 14.5625 101.711 14.121C102.495 13.6591 103.385 13.4277 104.378 13.4277Z" fill="#272727"/>
</svg>
