<svg width="26" height="26" viewBox="0 0 26 26" fill="none" xmlns="http://www.w3.org/2000/svg">
<path fill-rule="evenodd" clip-rule="evenodd" d="M10.5756 2.89624C14.7743 2.89625 18.1781 6.30374 18.1781 10.5066C18.178 12.2905 17.5645 13.9308 16.5375 15.2283L22.9535 21.6482L21.7064 22.8962L15.2933 16.4744L15.0463 16.6619C13.7915 17.5765 12.2465 18.116 10.5756 18.116C6.37687 18.116 2.97318 14.7093 2.97302 10.5066C2.97802 6.30571 6.37927 2.90124 10.5756 2.89624ZM10.5756 4.65796C7.34874 4.65796 4.73279 7.27657 4.73279 10.5066C4.73693 13.7348 7.3508 16.3502 10.5756 16.3542C13.8023 16.3542 16.4182 13.7365 16.4183 10.5066C16.4183 7.27658 13.8024 4.65796 10.5756 4.65796Z" fill="#272727"/>
</svg>
