<svg width="26" height="26" viewBox="0 0 26 26" fill="none" xmlns="http://www.w3.org/2000/svg">
<path d="M22.2465 21.6483L21.7064 22.1883L16.0287 16.5037C16.2164 16.3326 16.3958 16.1526 16.5668 15.9647L22.2465 21.6483ZM10.5756 3.3963C14.4977 3.39631 17.6781 6.57949 17.6781 10.5067C17.678 11.9704 17.2353 13.3301 16.4779 14.4608L16.1713 14.1541L15.9271 13.9109C16.5534 12.9268 16.9183 11.7597 16.9183 10.5067C16.9183 7.00095 14.079 4.15803 10.5756 4.15802C7.07213 4.15802 4.23279 7.00095 4.23279 10.5067L4.24158 10.8338C4.40982 14.0772 7.00745 16.6781 10.2484 16.8465L10.5746 16.8543H10.5756C11.8277 16.8543 12.9938 16.4898 13.9769 15.8631L14.2191 16.1063L14.5267 16.4139C13.3969 17.1726 12.0381 17.616 10.5756 17.616C6.65349 17.616 3.47321 14.4336 3.47302 10.5067L3.48279 10.1414C3.67701 6.38594 6.77807 3.40113 10.5756 3.3963ZM15.8578 15.2567C15.6883 15.4454 15.5092 15.6251 15.3207 15.7947L15.2797 15.7527L15.8168 15.2147L15.8578 15.2567Z" fill="#272727" stroke="#272727"/>
</svg>
