<svg width="137" height="36" viewBox="0 0 137 36" fill="none" xmlns="http://www.w3.org/2000/svg">
<path d="M118.779 1.28236C119.21 -0.389209 121.584 -0.389205 122.015 1.28237L122.82 4.40152C124.298 10.1329 128.774 14.6085 134.505 16.087C137.008 16.7326 137.008 20.2868 134.505 20.9324C128.774 22.4109 124.298 26.8865 122.82 32.6179L122.475 33.9533C121.922 36.1002 118.873 36.1002 118.319 33.9533L117.707 31.5807C116.393 26.4892 112.418 22.5134 107.326 21.2C104.547 20.4831 104.547 16.5363 107.326 15.8194C112.418 14.506 116.393 10.5302 117.707 5.43869L118.779 1.28236Z" fill="#414141"/>
<path d="M3.50708 19.667C3.57708 20.059 3.73108 20.402 3.96908 20.696C4.20708 20.99 4.51508 21.221 4.89308 21.389C5.28508 21.543 5.74008 21.62 6.25808 21.62C7.07008 21.62 7.67908 21.438 8.08508 21.074C8.49108 20.696 8.69408 20.241 8.69408 19.709C8.69408 19.289 8.56808 18.939 8.31608 18.659C8.06408 18.379 7.70708 18.141 7.24508 17.945C6.79708 17.749 6.27208 17.56 5.67008 17.378C5.11008 17.21 4.55708 17.028 4.01108 16.832C3.46508 16.636 2.96808 16.391 2.52008 16.097C2.07208 15.803 1.71508 15.425 1.44908 14.963C1.19708 14.487 1.07108 13.892 1.07108 13.178C1.07108 12.282 1.28808 11.519 1.72208 10.889C2.17008 10.259 2.77908 9.78296 3.54908 9.46096C4.31908 9.13896 5.20808 8.97796 6.21608 8.97796C7.07008 8.97796 7.84008 9.10396 8.52608 9.35596C9.21208 9.59396 9.78608 9.95096 10.2481 10.427C10.7241 10.889 11.0741 11.463 11.2981 12.149L8.67308 12.863C8.60308 12.555 8.44908 12.289 8.21108 12.065C7.97308 11.841 7.68608 11.666 7.35008 11.54C7.01408 11.4 6.65008 11.33 6.25808 11.33C5.83808 11.316 5.45308 11.379 5.10308 11.519C4.75308 11.659 4.47308 11.862 4.26308 12.128C4.05308 12.394 3.94808 12.702 3.94808 13.052C3.94808 13.444 4.06708 13.759 4.30508 13.997C4.54308 14.221 4.85808 14.417 5.25008 14.585C5.64208 14.739 6.08308 14.893 6.57308 15.047C7.16108 15.215 7.74908 15.411 8.33708 15.635C8.92508 15.845 9.46408 16.118 9.95408 16.454C10.4441 16.776 10.8361 17.189 11.1301 17.693C11.4381 18.197 11.5921 18.834 11.5921 19.604C11.5921 20.416 11.3961 21.151 11.0041 21.809C10.6261 22.467 10.0521 22.992 9.28208 23.384C8.51208 23.776 7.54608 23.972 6.38408 23.972C5.43208 23.972 4.56408 23.832 3.78008 23.552C3.01008 23.272 2.37308 22.866 1.86908 22.334C1.36508 21.788 1.03608 21.144 0.88208 20.402L3.50708 19.667Z" fill="#272727"/>
<path d="M13.7508 13.325H16.1868L16.3758 14.354C16.7118 14.004 17.1108 13.724 17.5728 13.514C18.0488 13.29 18.5668 13.178 19.1268 13.178C19.7988 13.178 20.4148 13.325 20.9748 13.619C21.5348 13.899 21.9828 14.305 22.3188 14.837C22.6968 14.319 23.1868 13.913 23.7888 13.619C24.4048 13.325 25.0698 13.178 25.7838 13.178C26.6098 13.178 27.3238 13.353 27.9258 13.703C28.5418 14.053 29.0178 14.564 29.3538 15.236C29.6898 15.894 29.8578 16.713 29.8578 17.693V23.825H27.1698V18.05C27.1698 17.252 26.9948 16.65 26.6448 16.244C26.2948 15.838 25.7978 15.635 25.1538 15.635C24.4958 15.635 23.9778 15.845 23.5998 16.265C23.2358 16.685 23.0538 17.294 23.0538 18.092V23.825H20.3658V18.05C20.3658 17.252 20.2048 16.65 19.8828 16.244C19.5748 15.838 19.0988 15.635 18.4548 15.635C17.7968 15.635 17.2928 15.845 16.9428 16.265C16.6068 16.671 16.4388 17.273 16.4388 18.071V23.825H13.7508V13.325Z" fill="#272727"/>
<path d="M38.4639 23.825L38.2539 22.544C37.9039 22.978 37.5049 23.321 37.0569 23.573C36.6229 23.825 36.0349 23.951 35.2929 23.951C34.5929 23.951 33.9769 23.832 33.4449 23.594C32.9269 23.342 32.5209 22.999 32.2269 22.565C31.9329 22.117 31.7859 21.592 31.7859 20.99C31.7859 20.108 32.1009 19.38 32.7309 18.806C33.3749 18.218 34.3409 17.847 35.6289 17.693L38.2539 17.399V16.664C38.2539 16.37 38.1209 16.097 37.8549 15.845C37.5889 15.593 37.1689 15.467 36.5949 15.467C36.0909 15.467 35.6499 15.593 35.2719 15.845C34.9079 16.083 34.6629 16.447 34.5369 16.937L32.2269 16.097C32.5069 15.159 33.0389 14.438 33.8229 13.934C34.6069 13.43 35.5729 13.178 36.7209 13.178C38.1209 13.178 39.1709 13.528 39.8709 14.228C40.5849 14.914 40.9419 15.824 40.9419 16.958V23.825H38.4639ZM38.2539 19.268L35.9859 19.562C35.5239 19.618 35.1739 19.758 34.9359 19.982C34.6979 20.192 34.5789 20.451 34.5789 20.759C34.5789 21.053 34.6979 21.305 34.9359 21.515C35.1739 21.711 35.5099 21.809 35.9439 21.809C36.4339 21.809 36.8469 21.718 37.1829 21.536C37.5329 21.354 37.7989 21.088 37.9809 20.738C38.1629 20.388 38.2539 19.954 38.2539 19.436V19.268Z" fill="#272727"/>
<path d="M43.4051 13.325H45.8411L46.0301 14.669C46.3241 14.305 46.6531 14.011 47.0171 13.787C47.3951 13.549 47.8081 13.388 48.2561 13.304C48.7041 13.206 49.1731 13.213 49.6631 13.325V15.845C49.2851 15.719 48.8861 15.684 48.4661 15.74C48.0601 15.796 47.6751 15.943 47.3111 16.181C46.9611 16.419 46.6671 16.762 46.4291 17.21C46.2051 17.644 46.0931 18.197 46.0931 18.869V23.825H43.4051V13.325Z" fill="#272727"/>
<path d="M52.1386 13.325V10.385H54.8687V13.325H57.1786V15.698H54.8687V19.961C54.8687 20.507 54.9807 20.892 55.2047 21.116C55.4427 21.34 55.7367 21.459 56.0867 21.473C56.4507 21.487 56.8146 21.466 57.1786 21.41V23.72C56.5346 23.86 55.9047 23.902 55.2887 23.846C54.6867 23.79 54.1477 23.629 53.6716 23.363C53.1957 23.083 52.8177 22.663 52.5377 22.103C52.2717 21.543 52.1386 20.829 52.1386 19.961V15.698H50.6477V13.325H52.1386Z" fill="#272727"/>
<path d="M61.4456 22.25L61.7816 22.208V28.025H59.0936V13.325H61.5296L61.6976 14.627C62.0056 14.221 62.4396 13.878 62.9996 13.598C63.5596 13.318 64.2036 13.178 64.9316 13.178C65.8416 13.178 66.6466 13.402 67.3466 13.85C68.0466 14.298 68.5926 14.928 68.9846 15.74C69.3906 16.538 69.5936 17.483 69.5936 18.575C69.5936 19.667 69.3906 20.619 68.9846 21.431C68.5926 22.243 68.0466 22.873 67.3466 23.321C66.6606 23.755 65.8556 23.972 64.9316 23.972C64.1196 23.972 63.4126 23.804 62.8106 23.468C62.2226 23.132 61.7676 22.726 61.4456 22.25ZM66.6956 18.575C66.6956 17.693 66.4646 16.986 66.0026 16.454C65.5546 15.908 64.9666 15.635 64.2386 15.635C63.7906 15.635 63.3776 15.754 62.9996 15.992C62.6356 16.216 62.3416 16.545 62.1176 16.979C61.8936 17.399 61.7816 17.931 61.7816 18.575C61.7816 19.205 61.8936 19.737 62.1176 20.171C62.3416 20.605 62.6356 20.941 62.9996 21.179C63.3776 21.403 63.7906 21.515 64.2386 21.515C64.9666 21.515 65.5546 21.249 66.0026 20.717C66.4646 20.171 66.6956 19.457 66.6956 18.575Z" fill="#272727"/>
<path d="M71.6444 8.70496H74.3324V14.354C74.6544 14.004 75.0534 13.724 75.5294 13.514C76.0194 13.29 76.5654 13.178 77.1674 13.178C77.9654 13.178 78.6584 13.353 79.2464 13.703C79.8484 14.053 80.3104 14.564 80.6324 15.236C80.9544 15.894 81.1154 16.713 81.1154 17.693V23.825H78.2804V18.05C78.2804 17.238 78.1194 16.629 77.7974 16.223C77.4754 15.817 76.9924 15.614 76.3484 15.614C75.6904 15.614 75.1864 15.838 74.8364 16.286C74.5004 16.72 74.3324 17.343 74.3324 18.155V23.825H71.6444V8.70496Z" fill="#272727"/>
<path d="M88.3264 23.972C87.3044 23.972 86.3944 23.755 85.5964 23.321C84.7984 22.873 84.1684 22.25 83.7064 21.452C83.2584 20.64 83.0344 19.688 83.0344 18.596C83.0344 17.49 83.2654 16.531 83.7274 15.719C84.2034 14.907 84.8474 14.284 85.6594 13.85C86.4714 13.402 87.3814 13.178 88.3894 13.178C89.3974 13.178 90.3074 13.402 91.1194 13.85C91.9314 14.284 92.5754 14.907 93.0514 15.719C93.5274 16.517 93.7654 17.462 93.7654 18.554C93.7654 19.66 93.5204 20.619 93.0304 21.431C92.5544 22.243 91.9034 22.873 91.0774 23.321C90.2654 23.755 89.3484 23.972 88.3264 23.972ZM88.3054 21.557C88.7394 21.557 89.1524 21.452 89.5444 21.242C89.9364 21.018 90.2584 20.689 90.5104 20.255C90.7624 19.807 90.8884 19.24 90.8884 18.554C90.8884 17.896 90.7694 17.35 90.5314 16.916C90.2934 16.468 89.9784 16.139 89.5864 15.929C89.2084 15.705 88.7954 15.593 88.3474 15.593C87.9134 15.593 87.5074 15.705 87.1294 15.929C86.7654 16.139 86.4714 16.468 86.2474 16.916C86.0374 17.35 85.9324 17.91 85.9324 18.596C85.9324 19.254 86.0374 19.807 86.2474 20.255C86.4574 20.689 86.7444 21.018 87.1084 21.242C87.4724 21.452 87.8714 21.557 88.3054 21.557Z" fill="#272727"/>
<path d="M95.8231 13.325H98.2591L98.4481 14.396C98.7841 14.018 99.1901 13.724 99.6661 13.514C100.156 13.29 100.681 13.178 101.241 13.178C102.067 13.178 102.767 13.353 103.341 13.703C103.929 14.053 104.377 14.564 104.685 15.236C105.007 15.894 105.168 16.713 105.168 17.693V23.825H102.459V18.05C102.459 17.238 102.298 16.629 101.976 16.223C101.654 15.817 101.171 15.614 100.527 15.614C99.8691 15.614 99.3651 15.824 99.0151 16.244C98.6791 16.65 98.5111 17.259 98.5111 18.071V23.825H95.8231V13.325Z" fill="#272727"/>
<path d="M112.362 23.972C111.312 23.972 110.388 23.741 109.59 23.279C108.792 22.817 108.169 22.173 107.721 21.347C107.287 20.521 107.07 19.569 107.07 18.491C107.07 17.455 107.287 16.538 107.721 15.74C108.155 14.942 108.757 14.319 109.527 13.871C110.311 13.409 111.2 13.178 112.194 13.178C113.202 13.178 114.091 13.395 114.861 13.829C115.631 14.263 116.226 14.872 116.646 15.656C117.08 16.426 117.297 17.329 117.297 18.365C117.297 18.519 117.283 18.694 117.255 18.89C117.241 19.072 117.22 19.268 117.192 19.478H109.968C110.024 19.926 110.164 20.311 110.388 20.633C110.626 20.941 110.913 21.186 111.249 21.368C111.599 21.536 111.991 21.62 112.425 21.62C112.943 21.62 113.405 21.515 113.811 21.305C114.231 21.081 114.532 20.794 114.714 20.444L117.108 21.158C116.688 22.054 116.058 22.747 115.218 23.237C114.392 23.727 113.44 23.972 112.362 23.972ZM114.357 17.525C114.343 17.133 114.238 16.783 114.042 16.475C113.846 16.153 113.587 15.908 113.265 15.74C112.943 15.558 112.586 15.467 112.194 15.467C111.844 15.467 111.515 15.558 111.207 15.74C110.899 15.922 110.633 16.167 110.409 16.475C110.199 16.769 110.059 17.119 109.989 17.525H114.357Z" fill="#272727"/>
<path d="M121.236 20.402C121.32 20.752 121.46 21.018 121.656 21.2C121.866 21.382 122.097 21.515 122.349 21.599C122.615 21.669 122.881 21.704 123.147 21.704C123.637 21.704 124.022 21.613 124.302 21.431C124.582 21.235 124.722 20.99 124.722 20.696C124.722 20.444 124.624 20.248 124.428 20.108C124.232 19.954 123.98 19.842 123.672 19.772C123.364 19.688 123.049 19.604 122.727 19.52C122.349 19.422 121.943 19.317 121.509 19.205C121.089 19.079 120.69 18.904 120.312 18.68C119.934 18.456 119.619 18.169 119.367 17.819C119.115 17.455 118.989 17 118.989 16.454C118.989 15.81 119.164 15.243 119.514 14.753C119.878 14.263 120.375 13.878 121.005 13.598C121.649 13.318 122.391 13.178 123.231 13.178C124.225 13.178 125.065 13.388 125.751 13.808C126.437 14.228 126.934 14.83 127.242 15.614L124.869 16.286C124.799 16.09 124.68 15.929 124.512 15.803C124.344 15.677 124.141 15.586 123.903 15.53C123.679 15.474 123.448 15.446 123.21 15.446C122.804 15.446 122.468 15.53 122.202 15.698C121.936 15.852 121.803 16.069 121.803 16.349C121.803 16.517 121.852 16.657 121.95 16.769C122.048 16.867 122.181 16.951 122.349 17.021C122.531 17.091 122.734 17.154 122.958 17.21C123.196 17.266 123.455 17.329 123.735 17.399C124.169 17.511 124.603 17.644 125.037 17.798C125.485 17.938 125.891 18.12 126.255 18.344C126.633 18.568 126.934 18.869 127.158 19.247C127.382 19.625 127.508 20.101 127.536 20.675C127.536 21.291 127.361 21.851 127.011 22.355C126.661 22.845 126.157 23.237 125.499 23.531C124.841 23.825 124.043 23.972 123.105 23.972C122.013 23.972 121.082 23.741 120.312 23.279C119.556 22.817 119.059 22.096 118.821 21.116L121.236 20.402Z" fill="#272727"/>
<path d="M112.359 23.972C111.309 23.972 110.385 23.741 109.587 23.279C108.789 22.817 108.166 22.173 107.718 21.347C107.284 20.521 107.067 19.569 107.067 18.491C107.067 17.455 107.284 16.538 107.718 15.74C108.152 14.942 108.754 14.319 109.524 13.871C110.308 13.409 111.197 13.178 112.191 13.178C113.199 13.178 114.088 13.395 114.858 13.829C115.628 14.263 116.223 14.872 116.643 15.656C117.077 16.426 117.294 17.329 117.294 18.365C117.294 18.519 117.28 18.694 117.252 18.89C117.238 19.072 117.217 19.268 117.189 19.478H109.965C110.021 19.926 110.161 20.311 110.385 20.633C110.623 20.941 110.91 21.186 111.246 21.368C111.596 21.536 111.988 21.62 112.422 21.62C112.94 21.62 113.402 21.515 113.808 21.305C114.228 21.081 114.529 20.794 114.711 20.444L117.105 21.158C116.685 22.054 116.055 22.747 115.215 23.237C114.389 23.727 113.437 23.972 112.359 23.972ZM114.354 17.525C114.34 17.133 114.235 16.783 114.039 16.475C113.843 16.153 113.584 15.908 113.262 15.74C112.94 15.558 112.583 15.467 112.191 15.467C111.841 15.467 111.512 15.558 111.204 15.74C110.896 15.922 110.63 16.167 110.406 16.475C110.196 16.769 110.056 17.119 109.986 17.525H114.354Z" fill="#EAEAEA"/>
<path d="M121.233 20.402C121.317 20.752 121.457 21.018 121.653 21.2C121.863 21.382 122.094 21.515 122.346 21.599C122.612 21.669 122.878 21.704 123.144 21.704C123.634 21.704 124.019 21.613 124.299 21.431C124.579 21.235 124.719 20.99 124.719 20.696C124.719 20.444 124.621 20.248 124.425 20.108C124.229 19.954 123.977 19.842 123.669 19.772C123.361 19.688 123.046 19.604 122.724 19.52C122.346 19.422 121.94 19.317 121.506 19.205C121.086 19.079 120.687 18.904 120.309 18.68C119.931 18.456 119.616 18.169 119.364 17.819C119.112 17.455 118.986 17 118.986 16.454C118.986 15.81 119.161 15.243 119.511 14.753C119.875 14.263 120.372 13.878 121.002 13.598C121.646 13.318 122.388 13.178 123.228 13.178C124.222 13.178 125.062 13.388 125.748 13.808C126.434 14.228 126.931 14.83 127.239 15.614L124.866 16.286C124.796 16.09 124.677 15.929 124.509 15.803C124.341 15.677 124.138 15.586 123.9 15.53C123.676 15.474 123.445 15.446 123.207 15.446C122.801 15.446 122.465 15.53 122.199 15.698C121.933 15.852 121.8 16.069 121.8 16.349C121.8 16.517 121.849 16.657 121.947 16.769C122.045 16.867 122.178 16.951 122.346 17.021C122.528 17.091 122.731 17.154 122.955 17.21C123.193 17.266 123.452 17.329 123.732 17.399C124.166 17.511 124.6 17.644 125.034 17.798C125.482 17.938 125.888 18.12 126.252 18.344C126.63 18.568 126.931 18.869 127.155 19.247C127.379 19.625 127.505 20.101 127.533 20.675C127.533 21.291 127.358 21.851 127.008 22.355C126.658 22.845 126.154 23.237 125.496 23.531C124.838 23.825 124.04 23.972 123.102 23.972C122.01 23.972 121.079 23.741 120.309 23.279C119.553 22.817 119.056 22.096 118.818 21.116L121.233 20.402Z" fill="#EAEAEA"/>
<path d="M107.696 21.3011C109.588 21.843 111.317 22.7556 112.801 23.9564C112.656 23.9659 112.509 23.972 112.359 23.972C111.309 23.972 110.385 23.7406 109.587 23.2787C108.789 22.8167 108.166 22.173 107.718 21.347C107.71 21.332 107.704 21.3163 107.696 21.3011ZM112.191 13.1781C112.342 13.1781 112.49 13.184 112.635 13.1937C111.199 14.3208 109.544 15.1824 107.738 15.7054C108.17 14.9243 108.765 14.3129 109.524 13.8715C110.308 13.4095 111.197 13.1781 112.191 13.1781Z" fill="#272727"/>
</svg>
