<svg width="146" height="37" viewBox="0 0 146 37" fill="none" xmlns="http://www.w3.org/2000/svg">
<path d="M127.966 1.78212C128.398 0.110547 130.771 0.110551 131.203 1.78212L132.007 4.90127C133.486 10.6327 137.961 15.1083 143.693 16.5867C146.196 17.2323 146.196 20.7866 143.693 21.4322C137.961 22.9106 133.486 27.3863 132.007 33.1177L131.663 34.453C131.109 36.5999 128.06 36.5999 127.506 34.453L126.894 32.0805C125.581 26.989 121.605 23.0131 116.514 21.6997C113.734 20.9828 113.734 17.0361 116.514 16.3192C121.605 15.0058 125.581 11.0299 126.894 5.93845L127.966 1.78212Z" fill="#414141"/>
<path d="M2.7627 20.1667C2.8327 20.5587 2.9867 20.9017 3.2247 21.1957C3.4627 21.4897 3.7707 21.7207 4.1487 21.8887C4.5407 22.0427 4.9957 22.1197 5.5137 22.1197C6.3257 22.1197 6.9347 21.9377 7.3407 21.5737C7.7467 21.1957 7.9497 20.7407 7.9497 20.2087C7.9497 19.7887 7.8237 19.4387 7.5717 19.1587C7.3197 18.8787 6.9627 18.6407 6.5007 18.4447C6.0527 18.2487 5.5277 18.0597 4.9257 17.8777C4.3657 17.7097 3.8127 17.5277 3.2667 17.3317C2.7207 17.1357 2.2237 16.8907 1.7757 16.5967C1.3277 16.3027 0.970695 15.9247 0.704695 15.4627C0.452695 14.9867 0.326695 14.3917 0.326695 13.6777C0.326695 12.7817 0.543695 12.0187 0.977695 11.3887C1.4257 10.7587 2.0347 10.2827 2.8047 9.96071C3.5747 9.63871 4.4637 9.47771 5.4717 9.47771C6.3257 9.47771 7.0957 9.60371 7.7817 9.85571C8.4677 10.0937 9.0417 10.4507 9.5037 10.9267C9.9797 11.3887 10.3297 11.9627 10.5537 12.6487L7.9287 13.3627C7.8587 13.0547 7.7047 12.7887 7.4667 12.5647C7.2287 12.3407 6.9417 12.1657 6.6057 12.0397C6.2697 11.8997 5.9057 11.8297 5.5137 11.8297C5.0937 11.8157 4.7087 11.8787 4.3587 12.0187C4.0087 12.1587 3.7287 12.3617 3.5187 12.6277C3.3087 12.8937 3.2037 13.2017 3.2037 13.5517C3.2037 13.9437 3.3227 14.2587 3.5607 14.4967C3.7987 14.7207 4.1137 14.9167 4.5057 15.0847C4.8977 15.2387 5.3387 15.3927 5.8287 15.5467C6.4167 15.7147 7.0047 15.9107 7.5927 16.1347C8.1807 16.3447 8.7197 16.6177 9.2097 16.9537C9.6997 17.2757 10.0917 17.6887 10.3857 18.1927C10.6937 18.6967 10.8477 19.3337 10.8477 20.1037C10.8477 20.9157 10.6517 21.6507 10.2597 22.3087C9.8817 22.9667 9.3077 23.4917 8.5377 23.8837C7.7677 24.2757 6.8017 24.4717 5.6397 24.4717C4.6877 24.4717 3.8197 24.3317 3.0357 24.0517C2.2657 23.7717 1.6287 23.3657 1.1247 22.8337C0.620695 22.2877 0.291695 21.6437 0.137695 20.9017L2.7627 20.1667Z" fill="#272727"/>
<path d="M13.0064 13.8247H15.4424L15.6314 14.8537C15.9674 14.5037 16.3664 14.2237 16.8284 14.0137C17.3044 13.7897 17.8224 13.6777 18.3824 13.6777C19.0544 13.6777 19.6704 13.8247 20.2304 14.1187C20.7904 14.3987 21.2384 14.8047 21.5744 15.3367C21.9524 14.8187 22.4424 14.4127 23.0444 14.1187C23.6604 13.8247 24.3254 13.6777 25.0394 13.6777C25.8654 13.6777 26.5794 13.8527 27.1814 14.2027C27.7974 14.5527 28.2734 15.0637 28.6094 15.7357C28.9454 16.3937 29.1134 17.2127 29.1134 18.1927V24.3247H26.4254V18.5497C26.4254 17.7517 26.2504 17.1497 25.9004 16.7437C25.5504 16.3377 25.0534 16.1347 24.4094 16.1347C23.7514 16.1347 23.2334 16.3447 22.8554 16.7647C22.4914 17.1847 22.3094 17.7937 22.3094 18.5917V24.3247H19.6214V18.5497C19.6214 17.7517 19.4604 17.1497 19.1384 16.7437C18.8304 16.3377 18.3544 16.1347 17.7104 16.1347C17.0524 16.1347 16.5484 16.3447 16.1984 16.7647C15.8624 17.1707 15.6944 17.7727 15.6944 18.5707V24.3247H13.0064V13.8247Z" fill="#272727"/>
<path d="M37.7195 24.3247L37.5095 23.0437C37.1595 23.4777 36.7605 23.8207 36.3125 24.0727C35.8785 24.3247 35.2905 24.4507 34.5485 24.4507C33.8485 24.4507 33.2325 24.3317 32.7005 24.0937C32.1825 23.8417 31.7765 23.4987 31.4825 23.0647C31.1885 22.6167 31.0415 22.0917 31.0415 21.4897C31.0415 20.6077 31.3565 19.8797 31.9865 19.3057C32.6305 18.7177 33.5965 18.3467 34.8845 18.1927L37.5095 17.8987V17.1637C37.5095 16.8697 37.3765 16.5967 37.1105 16.3447C36.8445 16.0927 36.4245 15.9667 35.8505 15.9667C35.3465 15.9667 34.9055 16.0927 34.5275 16.3447C34.1635 16.5827 33.9185 16.9467 33.7925 17.4367L31.4825 16.5967C31.7625 15.6587 32.2945 14.9377 33.0785 14.4337C33.8625 13.9297 34.8285 13.6777 35.9765 13.6777C37.3765 13.6777 38.4265 14.0277 39.1265 14.7277C39.8405 15.4137 40.1975 16.3237 40.1975 17.4577V24.3247H37.7195ZM37.5095 19.7677L35.2415 20.0617C34.7795 20.1177 34.4295 20.2577 34.1915 20.4817C33.9535 20.6917 33.8345 20.9507 33.8345 21.2587C33.8345 21.5527 33.9535 21.8047 34.1915 22.0147C34.4295 22.2107 34.7655 22.3087 35.1995 22.3087C35.6895 22.3087 36.1025 22.2177 36.4385 22.0357C36.7885 21.8537 37.0545 21.5877 37.2365 21.2377C37.4185 20.8877 37.5095 20.4537 37.5095 19.9357V19.7677Z" fill="#272727"/>
<path d="M42.6607 13.8247H45.0967L45.2857 15.1687C45.5797 14.8047 45.9087 14.5107 46.2727 14.2867C46.6507 14.0487 47.0637 13.8877 47.5117 13.8037C47.9597 13.7057 48.4287 13.7127 48.9187 13.8247V16.3447C48.5407 16.2187 48.1417 16.1837 47.7217 16.2397C47.3157 16.2957 46.9307 16.4427 46.5667 16.6807C46.2167 16.9187 45.9227 17.2617 45.6847 17.7097C45.4607 18.1437 45.3487 18.6967 45.3487 19.3687V24.3247H42.6607V13.8247Z" fill="#272727"/>
<path d="M51.3943 13.8247V10.8847H54.1243V13.8247H56.4343V16.1977H54.1243V20.4607C54.1243 21.0067 54.2363 21.3917 54.4603 21.6157C54.6983 21.8397 54.9923 21.9587 55.3423 21.9727C55.7063 21.9867 56.0703 21.9657 56.4343 21.9097V24.2197C55.7903 24.3597 55.1603 24.4017 54.5443 24.3457C53.9423 24.2897 53.4033 24.1287 52.9273 23.8627C52.4513 23.5827 52.0733 23.1627 51.7933 22.6027C51.5273 22.0427 51.3943 21.3287 51.3943 20.4607V16.1977H49.9033V13.8247H51.3943Z" fill="#272727"/>
<path d="M63.3472 24.3247H60.5962L57.4882 13.8247H60.2602L62.0032 20.9227L63.8512 13.8247H66.5392L68.3242 20.9227L70.0462 13.8247H72.7972L69.6892 24.3247H66.8752L65.1322 17.7307L63.3472 24.3247Z" fill="#272727"/>
<path d="M80.6834 24.3247L80.4734 23.0437C80.1234 23.4777 79.7244 23.8207 79.2764 24.0727C78.8424 24.3247 78.2544 24.4507 77.5124 24.4507C76.8124 24.4507 76.1964 24.3317 75.6644 24.0937C75.1464 23.8417 74.7404 23.4987 74.4464 23.0647C74.1524 22.6167 74.0054 22.0917 74.0054 21.4897C74.0054 20.6077 74.3204 19.8797 74.9504 19.3057C75.5944 18.7177 76.5604 18.3467 77.8484 18.1927L80.4734 17.8987V17.1637C80.4734 16.8697 80.3404 16.5967 80.0744 16.3447C79.8084 16.0927 79.3884 15.9667 78.8144 15.9667C78.3104 15.9667 77.8694 16.0927 77.4914 16.3447C77.1274 16.5827 76.8824 16.9467 76.7564 17.4367L74.4464 16.5967C74.7264 15.6587 75.2584 14.9377 76.0424 14.4337C76.8264 13.9297 77.7924 13.6777 78.9404 13.6777C80.3404 13.6777 81.3904 14.0277 82.0904 14.7277C82.8044 15.4137 83.1614 16.3237 83.1614 17.4577V24.3247H80.6834ZM80.4734 19.7677L78.2054 20.0617C77.7434 20.1177 77.3934 20.2577 77.1554 20.4817C76.9174 20.6917 76.7984 20.9507 76.7984 21.2587C76.7984 21.5527 76.9174 21.8047 77.1554 22.0147C77.3934 22.2107 77.7294 22.3087 78.1634 22.3087C78.6534 22.3087 79.0664 22.2177 79.4024 22.0357C79.7524 21.8537 80.0184 21.5877 80.2004 21.2377C80.3824 20.8877 80.4734 20.4537 80.4734 19.9357V19.7677Z" fill="#272727"/>
<path d="M86.3806 13.8247V10.8847H89.1106V13.8247H91.4206V16.1977H89.1106V20.4607C89.1106 21.0067 89.2226 21.3917 89.4466 21.6157C89.6846 21.8397 89.9786 21.9587 90.3286 21.9727C90.6926 21.9867 91.0566 21.9657 91.4206 21.9097V24.2197C90.7766 24.3597 90.1466 24.4017 89.5306 24.3457C88.9286 24.2897 88.3896 24.1287 87.9136 23.8627C87.4376 23.5827 87.0596 23.1627 86.7796 22.6027C86.5136 22.0427 86.3806 21.3287 86.3806 20.4607V16.1977H84.8896V13.8247H86.3806Z" fill="#272727"/>
<path d="M97.9555 24.4717C96.9335 24.4717 96.0375 24.2477 95.2675 23.7997C94.4975 23.3517 93.8955 22.7287 93.4615 21.9307C93.0275 21.1187 92.8105 20.1807 92.8105 19.1167C92.8105 18.0387 93.0275 17.0937 93.4615 16.2817C93.8955 15.4697 94.5045 14.8327 95.2885 14.3707C96.0725 13.9087 96.9755 13.6777 97.9975 13.6777C99.1035 13.6777 100.084 13.9507 100.938 14.4967C101.806 15.0427 102.415 15.7777 102.765 16.7017L100.266 17.4157C100.098 17.0097 99.8175 16.6877 99.4255 16.4497C99.0475 16.2117 98.6135 16.0927 98.1235 16.0927C97.6335 16.0927 97.1995 16.2187 96.8215 16.4707C96.4575 16.7227 96.1705 17.0727 95.9605 17.5207C95.7645 17.9687 95.6665 18.4937 95.6665 19.0957C95.6665 20.0057 95.8905 20.7267 96.3385 21.2587C96.7865 21.7907 97.3885 22.0567 98.1445 22.0567C98.6205 22.0567 99.0545 21.9447 99.4465 21.7207C99.8385 21.4827 100.133 21.1607 100.329 20.7547L102.807 21.4687C102.429 22.3787 101.799 23.1067 100.917 23.6527C100.049 24.1987 99.0615 24.4717 97.9555 24.4717Z" fill="#272727"/>
<path d="M104.861 9.20471H107.549V14.8537C107.871 14.5037 108.27 14.2237 108.746 14.0137C109.236 13.7897 109.782 13.6777 110.384 13.6777C111.182 13.6777 111.875 13.8527 112.463 14.2027C113.065 14.5527 113.527 15.0637 113.849 15.7357C114.171 16.3937 114.332 17.2127 114.332 18.1927V24.3247H111.497V18.5497C111.497 17.7377 111.336 17.1287 111.014 16.7227C110.692 16.3167 110.209 16.1137 109.565 16.1137C108.907 16.1137 108.403 16.3377 108.053 16.7857C107.717 17.2197 107.549 17.8427 107.549 18.6547V24.3247H104.861V9.20471Z" fill="#272727"/>
<path d="M121.543 24.4717C120.493 24.4717 119.569 24.2407 118.771 23.7787C117.973 23.3167 117.35 22.6727 116.902 21.8467C116.468 21.0207 116.251 20.0687 116.251 18.9907C116.251 17.9547 116.468 17.0377 116.902 16.2397C117.336 15.4417 117.938 14.8187 118.708 14.3707C119.492 13.9087 120.381 13.6777 121.375 13.6777C122.383 13.6777 123.272 13.8947 124.042 14.3287C124.812 14.7627 125.407 15.3717 125.827 16.1557C126.261 16.9257 126.478 17.8287 126.478 18.8647C126.478 19.0187 126.464 19.1937 126.436 19.3897C126.422 19.5717 126.401 19.7677 126.373 19.9777H119.149C119.205 20.4257 119.345 20.8107 119.569 21.1327C119.807 21.4407 120.094 21.6857 120.43 21.8677C120.78 22.0357 121.172 22.1197 121.606 22.1197C122.124 22.1197 122.586 22.0147 122.992 21.8047C123.412 21.5807 123.713 21.2937 123.895 20.9437L126.289 21.6577C125.869 22.5537 125.239 23.2467 124.399 23.7367C123.573 24.2267 122.621 24.4717 121.543 24.4717ZM123.538 18.0247C123.524 17.6327 123.419 17.2827 123.223 16.9747C123.027 16.6527 122.768 16.4077 122.446 16.2397C122.124 16.0577 121.767 15.9667 121.375 15.9667C121.025 15.9667 120.696 16.0577 120.388 16.2397C120.08 16.4217 119.814 16.6667 119.59 16.9747C119.38 17.2687 119.24 17.6187 119.17 18.0247H123.538Z" fill="#272727"/>
<path d="M130.417 20.9017C130.501 21.2517 130.641 21.5177 130.837 21.6997C131.047 21.8817 131.278 22.0147 131.53 22.0987C131.796 22.1687 132.062 22.2037 132.328 22.2037C132.818 22.2037 133.203 22.1127 133.483 21.9307C133.763 21.7347 133.903 21.4897 133.903 21.1957C133.903 20.9437 133.805 20.7477 133.609 20.6077C133.413 20.4537 133.161 20.3417 132.853 20.2717C132.545 20.1877 132.23 20.1037 131.908 20.0197C131.53 19.9217 131.124 19.8167 130.69 19.7047C130.27 19.5787 129.871 19.4037 129.493 19.1797C129.115 18.9557 128.8 18.6687 128.548 18.3187C128.296 17.9547 128.17 17.4997 128.17 16.9537C128.17 16.3097 128.345 15.7427 128.695 15.2527C129.059 14.7627 129.556 14.3777 130.186 14.0977C130.83 13.8177 131.572 13.6777 132.412 13.6777C133.406 13.6777 134.246 13.8877 134.932 14.3077C135.618 14.7277 136.115 15.3297 136.423 16.1137L134.05 16.7857C133.98 16.5897 133.861 16.4287 133.693 16.3027C133.525 16.1767 133.322 16.0857 133.084 16.0297C132.86 15.9737 132.629 15.9457 132.391 15.9457C131.985 15.9457 131.649 16.0297 131.383 16.1977C131.117 16.3517 130.984 16.5687 130.984 16.8487C130.984 17.0167 131.033 17.1567 131.131 17.2687C131.229 17.3667 131.362 17.4507 131.53 17.5207C131.712 17.5907 131.915 17.6537 132.139 17.7097C132.377 17.7657 132.636 17.8287 132.916 17.8987C133.35 18.0107 133.784 18.1437 134.218 18.2977C134.666 18.4377 135.072 18.6197 135.436 18.8437C135.814 19.0677 136.115 19.3687 136.339 19.7467C136.563 20.1247 136.689 20.6007 136.717 21.1747C136.717 21.7907 136.542 22.3507 136.192 22.8547C135.842 23.3447 135.338 23.7367 134.68 24.0307C134.022 24.3247 133.224 24.4717 132.286 24.4717C131.194 24.4717 130.263 24.2407 129.493 23.7787C128.737 23.3167 128.24 22.5957 128.002 21.6157L130.417 20.9017Z" fill="#272727"/>
<path d="M121.547 24.4717C120.497 24.4717 119.573 24.2407 118.775 23.7787C117.977 23.3167 117.354 22.6727 116.906 21.8467C116.472 21.0207 116.255 20.0687 116.255 18.9907C116.255 17.9547 116.472 17.0377 116.906 16.2397C117.34 15.4417 117.942 14.8187 118.712 14.3707C119.496 13.9087 120.385 13.6777 121.379 13.6777C122.387 13.6777 123.276 13.8947 124.046 14.3287C124.816 14.7627 125.411 15.3717 125.831 16.1557C126.265 16.9257 126.482 17.8287 126.482 18.8647C126.482 19.0187 126.468 19.1937 126.44 19.3897C126.426 19.5717 126.405 19.7677 126.377 19.9777H119.153C119.209 20.4257 119.349 20.8107 119.573 21.1327C119.811 21.4407 120.098 21.6857 120.434 21.8677C120.784 22.0357 121.176 22.1197 121.61 22.1197C122.128 22.1197 122.59 22.0147 122.996 21.8047C123.416 21.5807 123.717 21.2937 123.899 20.9437L126.293 21.6577C125.873 22.5537 125.243 23.2467 124.403 23.7367C123.577 24.2267 122.625 24.4717 121.547 24.4717ZM123.542 18.0247C123.528 17.6327 123.423 17.2827 123.227 16.9747C123.031 16.6527 122.772 16.4077 122.45 16.2397C122.128 16.0577 121.771 15.9667 121.379 15.9667C121.029 15.9667 120.7 16.0577 120.392 16.2397C120.084 16.4217 119.818 16.6667 119.594 16.9747C119.384 17.2687 119.244 17.6187 119.174 18.0247H123.542Z" fill="#EAEAEA"/>
<path d="M130.421 20.9017C130.505 21.2517 130.645 21.5177 130.841 21.6997C131.051 21.8817 131.282 22.0147 131.534 22.0987C131.8 22.1687 132.066 22.2037 132.332 22.2037C132.822 22.2037 133.207 22.1127 133.487 21.9307C133.767 21.7347 133.907 21.4897 133.907 21.1957C133.907 20.9437 133.809 20.7477 133.613 20.6077C133.417 20.4537 133.165 20.3417 132.857 20.2717C132.549 20.1877 132.234 20.1037 131.912 20.0197C131.534 19.9217 131.128 19.8167 130.694 19.7047C130.274 19.5787 129.875 19.4037 129.497 19.1797C129.119 18.9557 128.804 18.6687 128.552 18.3187C128.3 17.9547 128.174 17.4997 128.174 16.9537C128.174 16.3097 128.349 15.7427 128.699 15.2527C129.063 14.7627 129.56 14.3777 130.19 14.0977C130.834 13.8177 131.576 13.6777 132.416 13.6777C133.41 13.6777 134.25 13.8877 134.936 14.3077C135.622 14.7277 136.119 15.3297 136.427 16.1137L134.054 16.7857C133.984 16.5897 133.865 16.4287 133.697 16.3027C133.529 16.1767 133.326 16.0857 133.088 16.0297C132.864 15.9737 132.633 15.9457 132.395 15.9457C131.989 15.9457 131.653 16.0297 131.387 16.1977C131.121 16.3517 130.988 16.5687 130.988 16.8487C130.988 17.0167 131.037 17.1567 131.135 17.2687C131.233 17.3667 131.366 17.4507 131.534 17.5207C131.716 17.5907 131.919 17.6537 132.143 17.7097C132.381 17.7657 132.64 17.8287 132.92 17.8987C133.354 18.0107 133.788 18.1437 134.222 18.2977C134.67 18.4377 135.076 18.6197 135.44 18.8437C135.818 19.0677 136.119 19.3687 136.343 19.7467C136.567 20.1247 136.693 20.6007 136.721 21.1747C136.721 21.7907 136.546 22.3507 136.196 22.8547C135.846 23.3447 135.342 23.7367 134.684 24.0307C134.026 24.3247 133.228 24.4717 132.29 24.4717C131.198 24.4717 130.267 24.2407 129.497 23.7787C128.741 23.3167 128.244 22.5957 128.006 21.6157L130.421 20.9017Z" fill="#EAEAEA"/>
<path d="M116.883 21.8009C118.775 22.3427 120.504 23.2554 121.989 24.4562C121.844 24.4656 121.696 24.4718 121.546 24.4718C120.497 24.4718 119.573 24.2404 118.775 23.7784C117.977 23.3165 117.354 22.6728 116.906 21.8468C116.898 21.8318 116.891 21.816 116.883 21.8009ZM121.378 13.6779C121.529 13.6779 121.677 13.6838 121.823 13.6935C120.387 14.8206 118.731 15.6821 116.925 16.2052C117.358 15.424 117.953 14.8127 118.711 14.3712C119.495 13.9093 120.385 13.6779 121.378 13.6779Z" fill="#272727"/>
</svg>
