<svg width="26" height="26" viewBox="0 0 26 26" fill="none" xmlns="http://www.w3.org/2000/svg">
<path d="M21.7984 5.7386C22.7084 6.63009 23.2754 7.88785 23.2754 9.28172C23.2754 10.5822 22.7819 11.7641 21.9789 12.6383L13.4548 21.3963L8.04701 15.8402L5.02857 12.9374C4.16175 12.0362 3.62659 10.7976 3.62659 9.43051C3.62659 8.06341 4.16175 6.82471 5.02813 5.92405C5.8854 5.04266 7.0701 4.49746 8.37873 4.49746M21.7965 5.73675C20.9505 4.90697 19.8019 4.3963 18.5373 4.3963M18.5145 4.3963C17.1605 4.3963 15.9395 4.98088 15.0774 5.91781M15.0753 5.92011L13.4547 7.58514L11.8468 5.93313C10.9539 5.04787 9.73794 4.50123 8.39771 4.49751" stroke="#272727" stroke-width="2"/>
</svg>
