<svg width="21" height="21" viewBox="0 0 21 21" fill="none" xmlns="http://www.w3.org/2000/svg">
<path d="M5.0821 5.99016H17.016L16.1886 19.1962C16.1548 19.7832 15.669 20.242 15.081 20.242H7.01716C6.42918 20.242 5.94329 19.7832 5.90949 19.1962L5.0821 5.99016Z" fill="#D9D9D9"/>
<path d="M3.27539 4.0616C3.27539 3.76916 3.46496 3.51176 3.74624 3.43175C4.99709 3.07596 8.47485 2.15407 10.9274 2.15407C13.38 2.15407 16.8578 3.07596 18.1086 3.43175C18.3899 3.51176 18.5795 3.76916 18.5795 4.0616V5.40135C18.5795 5.76901 18.2814 6.06706 17.9138 6.06706H3.9411C3.57344 6.06706 3.27539 5.76901 3.27539 5.40135V4.0616Z" fill="#D9D9D9"/>
<path d="M9.60681 1.25577C9.60681 0.888112 9.90486 0.590065 10.2725 0.590065H11.8258C12.1935 0.590065 12.4915 0.888111 12.4915 1.25577V2.16014C12.4915 2.5278 12.1935 2.82585 11.8258 2.82585H10.2725C9.90486 2.82585 9.60681 2.5278 9.60681 2.16014V1.25577Z" fill="#D9D9D9"/>
<path d="M8.52981 17.5693C8.5439 17.8139 8.35699 18.0237 8.11231 18.0378L8.09183 18.039C7.85527 18.0527 7.64971 17.8781 7.6249 17.6424L6.56986 7.62239C6.54471 7.38358 6.71406 7.1681 6.95204 7.13607L7.44696 7.06948C7.70308 7.03502 7.93436 7.22581 7.94921 7.48381L8.52981 17.5693Z" fill="#B4B4B4"/>
<path d="M13.906 17.5693C13.8919 17.8139 14.0788 18.0237 14.3235 18.0378L14.344 18.039C14.5805 18.0527 14.7861 17.8781 14.8109 17.6424L15.866 7.62239C15.8911 7.38358 15.7218 7.1681 15.4838 7.13607L14.9889 7.06948C14.7327 7.03502 14.5015 7.22581 14.4866 7.48381L13.906 17.5693Z" fill="#B4B4B4"/>
<path d="M10.5356 7.68795C10.5356 7.3111 10.8411 7.0056 11.218 7.0056C11.5948 7.0056 11.9003 7.3111 11.9003 7.68795V17.3806C11.9003 17.7575 11.5948 18.063 11.218 18.063C10.8411 18.063 10.5356 17.7575 10.5356 17.3806V7.68795Z" fill="#B4B4B4"/>
</svg>
