<svg width="25" height="25" viewBox="0 0 25 25" fill="none" xmlns="http://www.w3.org/2000/svg">
<path d="M16.3744 8.11426C16.3744 5.97476 14.6398 4.24035 12.5004 4.24023C10.3608 4.24023 8.62634 5.97469 8.62634 8.11426C8.62646 10.2537 10.3609 11.9883 12.5004 11.9883V13.7285L12.2113 13.7207C9.3408 13.5752 7.03863 11.2738 6.89294 8.40332L6.88611 8.11426C6.88611 5.01371 9.39982 2.5 12.5004 2.5L12.7894 2.50684C15.7555 2.65738 18.1146 5.11073 18.1146 8.11426L18.1068 8.40332C17.9563 11.3694 15.5038 13.7284 12.5004 13.7285V11.9883C14.6398 11.9882 16.3743 10.2537 16.3744 8.11426Z" fill="#272727"/>
<path d="M12.5 13.2089C17.6313 13.2089 21.7909 17.3686 21.791 22.4999H20.0508C20.0507 18.3296 16.6703 14.9491 12.5 14.9491C8.32979 14.9492 4.9493 18.3297 4.94922 22.4999H3.20898C3.20907 17.3687 7.36882 13.2089 12.5 13.2089Z" fill="#272727"/>
</svg>
