<svg width="26" height="26" viewBox="0 0 26 26" fill="none" xmlns="http://www.w3.org/2000/svg">
<path d="M0.598501 11.0635C0.0540626 9.015 1.25987 6.90941 3.29174 6.36052L9.73004 4.62127C11.7619 4.07238 13.8504 5.28804 14.3949 7.33653L16.12 13.8275C16.6644 15.876 15.4586 17.9816 13.4268 18.5305L6.98846 20.2697C4.95659 20.8186 2.86808 19.6029 2.32364 17.5545L0.598501 11.0635Z" fill="#272727"/>
<path d="M7.02872 7.33653C7.57315 5.28804 9.66167 4.07238 11.6935 4.62127L18.1318 6.36052C20.1637 6.90941 21.3695 9.015 20.8251 11.0635L19.0999 17.5545C18.5555 19.6029 16.467 20.8186 14.4351 20.2697L7.99681 18.5305C5.96494 17.9816 4.75914 15.876 5.30358 13.8275L7.02872 7.33653Z" fill="#4B4B4B"/>
<path d="M12.5878 6.54928C13.6395 4.71266 15.969 4.08338 17.7907 5.14376L23.5631 8.50373C25.3848 9.56411 26.009 11.9126 24.9572 13.7492L21.6245 19.5689C20.5728 21.4055 18.2433 22.0348 16.4216 20.9744L10.6492 17.6144C8.82746 16.554 8.20329 14.2055 9.25506 12.3689L12.5878 6.54928Z" fill="#D5D5D5"/>
</svg>
