<svg width="130" height="37" viewBox="0 0 130 37" fill="none" xmlns="http://www.w3.org/2000/svg">
<path d="M111.966 2.03236C112.398 0.360791 114.771 0.360795 115.203 2.03237L116.007 5.15152C117.486 10.8829 121.961 15.3585 127.693 16.837C130.196 17.4826 130.196 21.0368 127.693 21.6824C121.961 23.1609 117.486 27.6365 116.007 33.3679L115.663 34.7033C115.109 36.8502 112.06 36.8502 111.506 34.7033L110.894 32.3307C109.581 27.2392 105.605 23.2634 100.514 21.95C97.7344 21.2331 97.7344 17.2863 100.514 16.5694C105.605 15.256 109.581 11.2802 110.894 6.18869L111.966 2.03236Z" fill="#414141"/>
<path d="M11.2228 9.87496H14.2468L8.84978 24.575H5.42678L0.0507812 9.87496H3.07478L7.14878 21.677L11.2228 9.87496Z" fill="#272727"/>
<path d="M16.3821 14.075H19.0701V24.575H16.3821V14.075ZM17.7471 12.731C17.2431 12.731 16.8301 12.577 16.5081 12.269C16.1861 11.947 16.0251 11.555 16.0251 11.093C16.0251 10.631 16.1861 10.246 16.5081 9.93796C16.8301 9.61596 17.2431 9.45496 17.7471 9.45496C18.2231 9.45496 18.6221 9.61596 18.9441 9.93796C19.2801 10.246 19.4481 10.631 19.4481 11.093C19.4481 11.555 19.2801 11.947 18.9441 12.269C18.6221 12.577 18.2231 12.731 17.7471 12.731Z" fill="#272727"/>
<path d="M29.6363 15.65L29.3003 15.692V9.45496H31.9883V24.575H29.5523L29.3843 23.273C29.0483 23.665 28.6003 24.008 28.0403 24.302C27.4943 24.582 26.8573 24.722 26.1293 24.722C25.2193 24.722 24.4143 24.498 23.7143 24.05C23.0143 23.602 22.4683 22.979 22.0763 22.181C21.6843 21.369 21.4883 20.417 21.4883 19.325C21.4883 18.233 21.6843 17.281 22.0763 16.469C22.4683 15.657 23.0143 15.034 23.7143 14.6C24.4143 14.152 25.2193 13.928 26.1293 13.928C26.9553 13.928 27.6623 14.096 28.2503 14.432C28.8523 14.768 29.3143 15.174 29.6363 15.65ZM24.3863 19.325C24.3863 20.207 24.6103 20.921 25.0583 21.467C25.5063 21.999 26.0943 22.265 26.8223 22.265C27.2703 22.265 27.6763 22.153 28.0403 21.929C28.4183 21.691 28.7193 21.355 28.9433 20.921C29.1813 20.487 29.3003 19.955 29.3003 19.325C29.3003 18.695 29.1813 18.163 28.9433 17.729C28.7193 17.295 28.4183 16.966 28.0403 16.742C27.6763 16.504 27.2703 16.385 26.8223 16.385C26.0943 16.385 25.5063 16.658 25.0583 17.204C24.6103 17.736 24.3863 18.443 24.3863 19.325Z" fill="#272727"/>
<path d="M39.3311 24.722C38.2811 24.722 37.3571 24.491 36.5591 24.029C35.7611 23.567 35.1381 22.923 34.6901 22.097C34.2561 21.271 34.0391 20.319 34.0391 19.241C34.0391 18.205 34.2561 17.288 34.6901 16.49C35.1241 15.692 35.7261 15.069 36.4961 14.621C37.2801 14.159 38.1691 13.928 39.1631 13.928C40.1711 13.928 41.0601 14.145 41.8301 14.579C42.6001 15.013 43.1951 15.622 43.6151 16.406C44.0491 17.176 44.2661 18.079 44.2661 19.115C44.2661 19.269 44.2521 19.444 44.2241 19.64C44.2101 19.822 44.1891 20.018 44.1611 20.228H36.9371C36.9931 20.676 37.1331 21.061 37.3571 21.383C37.5951 21.691 37.8821 21.936 38.2181 22.118C38.5681 22.286 38.9601 22.37 39.3941 22.37C39.9121 22.37 40.3741 22.265 40.7801 22.055C41.2001 21.831 41.5011 21.544 41.6831 21.194L44.0771 21.908C43.6571 22.804 43.0271 23.497 42.1871 23.987C41.3611 24.477 40.4091 24.722 39.3311 24.722ZM41.3261 18.275C41.3121 17.883 41.2071 17.533 41.0111 17.225C40.8151 16.903 40.5561 16.658 40.2341 16.49C39.9121 16.308 39.5551 16.217 39.1631 16.217C38.8131 16.217 38.4841 16.308 38.1761 16.49C37.8681 16.672 37.6021 16.917 37.3781 17.225C37.1681 17.519 37.0281 17.869 36.9581 18.275H41.3261Z" fill="#272727"/>
<path d="M51.0821 24.722C50.0601 24.722 49.1501 24.505 48.3521 24.071C47.5541 23.623 46.9241 23 46.4621 22.202C46.0141 21.39 45.7901 20.438 45.7901 19.346C45.7901 18.24 46.0211 17.281 46.4831 16.469C46.9591 15.657 47.6031 15.034 48.4151 14.6C49.2271 14.152 50.1371 13.928 51.1451 13.928C52.1531 13.928 53.0631 14.152 53.8751 14.6C54.6871 15.034 55.3311 15.657 55.8071 16.469C56.2831 17.267 56.5211 18.212 56.5211 19.304C56.5211 20.41 56.2761 21.369 55.7861 22.181C55.3101 22.993 54.6591 23.623 53.8331 24.071C53.0211 24.505 52.1041 24.722 51.0821 24.722ZM51.0611 22.307C51.4951 22.307 51.9081 22.202 52.3001 21.992C52.6921 21.768 53.0141 21.439 53.2661 21.005C53.5181 20.557 53.6441 19.99 53.6441 19.304C53.6441 18.646 53.5251 18.1 53.2871 17.666C53.0491 17.218 52.7341 16.889 52.3421 16.679C51.9641 16.455 51.5511 16.343 51.1031 16.343C50.6691 16.343 50.2631 16.455 49.8851 16.679C49.5211 16.889 49.2271 17.218 49.0031 17.666C48.7931 18.1 48.6881 18.66 48.6881 19.346C48.6881 20.004 48.7931 20.557 49.0031 21.005C49.2131 21.439 49.5001 21.768 49.8641 21.992C50.2281 22.202 50.6271 22.307 51.0611 22.307Z" fill="#272727"/>
<path d="M66.1178 14.075H68.5538V23.021C68.5538 24.211 68.2598 25.233 67.6718 26.087C67.0838 26.955 66.2298 27.62 65.1098 28.082C64.0038 28.544 62.6738 28.775 61.1198 28.775L60.6998 26.507C62.3938 26.479 63.6748 26.178 64.5428 25.604C65.4248 25.03 65.8658 24.204 65.8658 23.126V23.084L66.2228 22.958C65.8868 23.448 65.4248 23.868 64.8368 24.218C64.2488 24.554 63.5488 24.722 62.7368 24.722C61.8128 24.722 61.0008 24.498 60.3008 24.05C59.6008 23.602 59.0478 22.979 58.6418 22.181C58.2498 21.369 58.0538 20.417 58.0538 19.325C58.0538 18.233 58.2498 17.281 58.6418 16.469C59.0478 15.657 59.6008 15.034 60.3008 14.6C61.0008 14.152 61.8128 13.928 62.7368 13.928C63.2128 13.928 63.6538 13.998 64.0598 14.138C64.4798 14.264 64.8438 14.439 65.1518 14.663C65.4738 14.873 65.7398 15.111 65.9498 15.377L66.1178 14.075ZM60.9518 19.325C60.9518 20.207 61.1758 20.921 61.6238 21.467C62.0718 21.999 62.6738 22.265 63.4298 22.265C63.8638 22.265 64.2628 22.153 64.6268 21.929C64.9908 21.691 65.2848 21.348 65.5088 20.9C65.7468 20.452 65.8658 19.927 65.8658 19.325C65.8658 18.695 65.7468 18.163 65.5088 17.729C65.2848 17.295 64.9838 16.966 64.6058 16.742C64.2418 16.504 63.8498 16.385 63.4298 16.385C62.6738 16.385 62.0718 16.658 61.6238 17.204C61.1758 17.736 60.9518 18.443 60.9518 19.325Z" fill="#272727"/>
<path d="M77.3036 24.575L77.0935 23.294C76.7435 23.728 76.3445 24.071 75.8965 24.323C75.4625 24.575 74.8745 24.701 74.1325 24.701C73.4325 24.701 72.8165 24.582 72.2845 24.344C71.7665 24.092 71.3605 23.749 71.0665 23.315C70.7725 22.867 70.6255 22.342 70.6255 21.74C70.6255 20.858 70.9405 20.13 71.5705 19.556C72.2145 18.968 73.1805 18.597 74.4685 18.443L77.0935 18.149V17.414C77.0935 17.12 76.9605 16.847 76.6945 16.595C76.4285 16.343 76.0085 16.217 75.4345 16.217C74.9305 16.217 74.4895 16.343 74.1115 16.595C73.7475 16.833 73.5025 17.197 73.3765 17.687L71.0665 16.847C71.3465 15.909 71.8785 15.188 72.6625 14.684C73.4465 14.18 74.4125 13.928 75.5605 13.928C76.9605 13.928 78.0105 14.278 78.7105 14.978C79.4245 15.664 79.7815 16.574 79.7815 17.708V24.575H77.3036ZM77.0935 20.018L74.8255 20.312C74.3635 20.368 74.0135 20.508 73.7755 20.732C73.5375 20.942 73.4185 21.201 73.4185 21.509C73.4185 21.803 73.5375 22.055 73.7755 22.265C74.0135 22.461 74.3495 22.559 74.7835 22.559C75.2735 22.559 75.6865 22.468 76.0225 22.286C76.3725 22.104 76.6385 21.838 76.8205 21.488C77.0025 21.138 77.0935 20.704 77.0935 20.186V20.018Z" fill="#272727"/>
<path d="M82.2448 14.075H84.6808L84.8698 15.104C85.2058 14.754 85.6048 14.474 86.0668 14.264C86.5428 14.04 87.0608 13.928 87.6208 13.928C88.2928 13.928 88.9088 14.075 89.4688 14.369C90.0288 14.649 90.4768 15.055 90.8128 15.587C91.1908 15.069 91.6808 14.663 92.2828 14.369C92.8988 14.075 93.5638 13.928 94.2778 13.928C95.1038 13.928 95.8178 14.103 96.4198 14.453C97.0358 14.803 97.5118 15.314 97.8478 15.986C98.1838 16.644 98.3518 17.463 98.3518 18.443V24.575H95.6638V18.8C95.6638 18.002 95.4888 17.4 95.1388 16.994C94.7888 16.588 94.2918 16.385 93.6478 16.385C92.9898 16.385 92.4718 16.595 92.0938 17.015C91.7298 17.435 91.5478 18.044 91.5478 18.842V24.575H88.8598V18.8C88.8598 18.002 88.6988 17.4 88.3768 16.994C88.0688 16.588 87.5928 16.385 86.9488 16.385C86.2908 16.385 85.7868 16.595 85.4368 17.015C85.1008 17.421 84.9328 18.023 84.9328 18.821V24.575H82.2448V14.075Z" fill="#272727"/>
<path d="M105.551 24.722C104.501 24.722 103.577 24.491 102.779 24.029C101.981 23.567 101.358 22.923 100.91 22.097C100.476 21.271 100.259 20.319 100.259 19.241C100.259 18.205 100.476 17.288 100.91 16.49C101.344 15.692 101.946 15.069 102.716 14.621C103.5 14.159 104.389 13.928 105.383 13.928C106.391 13.928 107.28 14.145 108.05 14.579C108.82 15.013 109.415 15.622 109.835 16.406C110.269 17.176 110.486 18.079 110.486 19.115C110.486 19.269 110.472 19.444 110.444 19.64C110.43 19.822 110.409 20.018 110.381 20.228H103.157C103.213 20.676 103.353 21.061 103.577 21.383C103.815 21.691 104.102 21.936 104.438 22.118C104.788 22.286 105.18 22.37 105.614 22.37C106.132 22.37 106.594 22.265 107 22.055C107.42 21.831 107.721 21.544 107.903 21.194L110.297 21.908C109.877 22.804 109.247 23.497 108.407 23.987C107.581 24.477 106.629 24.722 105.551 24.722ZM107.546 18.275C107.532 17.883 107.427 17.533 107.231 17.225C107.035 16.903 106.776 16.658 106.454 16.49C106.132 16.308 105.775 16.217 105.383 16.217C105.033 16.217 104.704 16.308 104.396 16.49C104.088 16.672 103.822 16.917 103.598 17.225C103.388 17.519 103.248 17.869 103.178 18.275H107.546Z" fill="#272727"/>
<path d="M114.425 21.152C114.509 21.502 114.649 21.768 114.845 21.95C115.055 22.132 115.286 22.265 115.538 22.349C115.804 22.419 116.07 22.454 116.336 22.454C116.826 22.454 117.211 22.363 117.491 22.181C117.771 21.985 117.911 21.74 117.911 21.446C117.911 21.194 117.813 20.998 117.617 20.858C117.421 20.704 117.169 20.592 116.861 20.522C116.553 20.438 116.238 20.354 115.916 20.27C115.538 20.172 115.132 20.067 114.698 19.955C114.278 19.829 113.879 19.654 113.501 19.43C113.123 19.206 112.808 18.919 112.556 18.569C112.304 18.205 112.178 17.75 112.178 17.204C112.178 16.56 112.353 15.993 112.703 15.503C113.067 15.013 113.564 14.628 114.194 14.348C114.838 14.068 115.58 13.928 116.42 13.928C117.414 13.928 118.254 14.138 118.94 14.558C119.626 14.978 120.123 15.58 120.431 16.364L118.058 17.036C117.988 16.84 117.869 16.679 117.701 16.553C117.533 16.427 117.33 16.336 117.092 16.28C116.868 16.224 116.637 16.196 116.399 16.196C115.993 16.196 115.657 16.28 115.391 16.448C115.125 16.602 114.992 16.819 114.992 17.099C114.992 17.267 115.041 17.407 115.139 17.519C115.237 17.617 115.37 17.701 115.538 17.771C115.72 17.841 115.923 17.904 116.147 17.96C116.385 18.016 116.644 18.079 116.924 18.149C117.358 18.261 117.792 18.394 118.226 18.548C118.674 18.688 119.08 18.87 119.444 19.094C119.822 19.318 120.123 19.619 120.347 19.997C120.571 20.375 120.697 20.851 120.725 21.425C120.725 22.041 120.55 22.601 120.2 23.105C119.85 23.595 119.346 23.987 118.688 24.281C118.03 24.575 117.232 24.722 116.294 24.722C115.202 24.722 114.271 24.491 113.501 24.029C112.745 23.567 112.248 22.846 112.01 21.866L114.425 21.152Z" fill="#272727"/>
<path d="M105.547 24.722C104.497 24.722 103.573 24.491 102.775 24.029C101.977 23.567 101.354 22.923 100.906 22.097C100.472 21.271 100.255 20.319 100.255 19.241C100.255 18.205 100.472 17.288 100.906 16.49C101.34 15.692 101.942 15.069 102.712 14.621C103.496 14.159 104.385 13.928 105.379 13.928C106.387 13.928 107.276 14.145 108.046 14.579C108.816 15.013 109.411 15.622 109.831 16.406C110.265 17.176 110.482 18.079 110.482 19.115C110.482 19.269 110.468 19.444 110.44 19.64C110.426 19.822 110.405 20.018 110.377 20.228H103.153C103.209 20.676 103.349 21.061 103.573 21.383C103.811 21.691 104.098 21.936 104.434 22.118C104.784 22.286 105.176 22.37 105.61 22.37C106.128 22.37 106.59 22.265 106.996 22.055C107.416 21.831 107.717 21.544 107.899 21.194L110.293 21.908C109.873 22.804 109.243 23.497 108.403 23.987C107.577 24.477 106.625 24.722 105.547 24.722ZM107.542 18.275C107.528 17.883 107.423 17.533 107.227 17.225C107.031 16.903 106.772 16.658 106.45 16.49C106.128 16.308 105.771 16.217 105.379 16.217C105.029 16.217 104.7 16.308 104.392 16.49C104.084 16.672 103.818 16.917 103.594 17.225C103.384 17.519 103.244 17.869 103.174 18.275H107.542Z" fill="#EAEAEA"/>
<path d="M114.421 21.152C114.505 21.502 114.645 21.768 114.841 21.95C115.051 22.132 115.282 22.265 115.534 22.349C115.8 22.419 116.066 22.454 116.332 22.454C116.822 22.454 117.207 22.363 117.487 22.181C117.767 21.985 117.907 21.74 117.907 21.446C117.907 21.194 117.809 20.998 117.613 20.858C117.417 20.704 117.165 20.592 116.857 20.522C116.549 20.438 116.234 20.354 115.912 20.27C115.534 20.172 115.128 20.067 114.694 19.955C114.274 19.829 113.875 19.654 113.497 19.43C113.119 19.206 112.804 18.919 112.552 18.569C112.3 18.205 112.174 17.75 112.174 17.204C112.174 16.56 112.349 15.993 112.699 15.503C113.063 15.013 113.56 14.628 114.19 14.348C114.834 14.068 115.576 13.928 116.416 13.928C117.41 13.928 118.25 14.138 118.936 14.558C119.622 14.978 120.119 15.58 120.427 16.364L118.054 17.036C117.984 16.84 117.865 16.679 117.697 16.553C117.529 16.427 117.326 16.336 117.088 16.28C116.864 16.224 116.633 16.196 116.395 16.196C115.989 16.196 115.653 16.28 115.387 16.448C115.121 16.602 114.988 16.819 114.988 17.099C114.988 17.267 115.037 17.407 115.135 17.519C115.233 17.617 115.366 17.701 115.534 17.771C115.716 17.841 115.919 17.904 116.143 17.96C116.381 18.016 116.64 18.079 116.92 18.149C117.354 18.261 117.788 18.394 118.222 18.548C118.67 18.688 119.076 18.87 119.44 19.094C119.818 19.318 120.119 19.619 120.343 19.997C120.567 20.375 120.693 20.851 120.721 21.425C120.721 22.041 120.546 22.601 120.196 23.105C119.846 23.595 119.342 23.987 118.684 24.281C118.026 24.575 117.228 24.722 116.29 24.722C115.198 24.722 114.267 24.491 113.497 24.029C112.741 23.567 112.244 22.846 112.006 21.866L114.421 21.152Z" fill="#EAEAEA"/>
<path d="M100.883 22.0511C102.775 22.593 104.504 23.5056 105.989 24.7064C105.844 24.7159 105.696 24.722 105.546 24.722C104.497 24.722 103.573 24.4906 102.775 24.0287C101.977 23.5667 101.354 22.923 100.906 22.097C100.898 22.082 100.891 22.0663 100.883 22.0511ZM105.378 13.9281C105.529 13.9281 105.677 13.934 105.823 13.9437C104.387 15.0708 102.731 15.9324 100.925 16.4554C101.358 15.6743 101.953 15.0629 102.711 14.6215C103.495 14.1595 104.385 13.9281 105.378 13.9281Z" fill="#272727"/>
</svg>
