<svg width="78" height="37" viewBox="0 0 78 37" fill="none" xmlns="http://www.w3.org/2000/svg">
<path d="M59.882 1.99757C60.3132 0.326001 62.687 0.326005 63.1182 1.99758L63.9228 5.11673C65.4013 10.8481 69.8769 15.3237 75.6083 16.8022C78.1111 17.4478 78.1111 21.002 75.6083 21.6476C69.8769 23.1261 65.4013 27.6017 63.9228 33.3331L63.5784 34.6685C63.0245 36.8154 59.9757 36.8154 59.4218 34.6685L58.8098 32.2959C57.4964 27.2045 53.5206 23.2286 48.4291 21.9152C45.6499 21.1983 45.6499 17.2515 48.4291 16.5346C53.5206 15.2213 57.4964 11.2454 58.8098 6.1539L59.882 1.99757Z" fill="#414141"/>
<path d="M5.045 24.625L0.625 10.825H3.925L8.165 24.625H5.045ZM6.745 24.625L10.865 10.825H18.125L13.1001 14.025L9.705 24.625H6.745Z" fill="#272727"/>
<path d="M13.1309 19.845L14.4552 17.265H19.9352L18.6109 19.845H13.1309Z" fill="#272727"/>
<path d="M25.9194 24.905C24.5994 24.905 23.5394 24.6516 22.7394 24.145C21.9527 23.6383 21.4594 22.865 21.2594 21.825L24.0194 20.965C24.166 21.525 24.4127 21.9383 24.7594 22.205C25.106 22.4583 25.5594 22.585 26.1194 22.585C26.6394 22.585 27.006 22.5183 27.2194 22.385C27.4327 22.2383 27.5394 22.0383 27.5394 21.785C27.5394 21.4783 27.3927 21.245 27.0994 21.085C26.8194 20.925 26.4527 20.7916 25.9994 20.685C25.5594 20.565 25.086 20.4383 24.5794 20.305C24.0727 20.1716 23.5927 19.985 23.1394 19.745C22.6994 19.505 22.3327 19.1783 22.0394 18.765C21.7594 18.3516 21.6194 17.805 21.6194 17.125C21.6194 16.125 21.9927 15.3116 22.7394 14.685C23.4994 14.0583 24.566 13.745 25.9394 13.745C27.126 13.745 28.086 13.985 28.8194 14.465C29.566 14.945 30.086 15.6383 30.3794 16.545L27.6794 17.385C27.5327 16.9183 27.3127 16.5783 27.0194 16.365C26.726 16.1516 26.3127 16.045 25.7794 16.045C25.2994 16.045 24.9594 16.1183 24.7594 16.265C24.5594 16.4116 24.4594 16.5783 24.4594 16.765C24.4594 17.0183 24.606 17.2183 24.8994 17.365C25.1927 17.4983 25.5727 17.6183 26.0394 17.725C26.506 17.8183 26.9927 17.9383 27.4994 18.085C28.0194 18.2183 28.5127 18.4183 28.9794 18.685C29.446 18.9383 29.826 19.285 30.1194 19.725C30.4127 20.165 30.5594 20.745 30.5594 21.465C30.5594 22.505 30.1527 23.3383 29.3394 23.965C28.526 24.5916 27.386 24.905 25.9194 24.905Z" fill="#272727"/>
<path d="M38.7347 24.625V18.545C38.7347 17.8383 38.5614 17.305 38.2147 16.945C37.8814 16.5716 37.448 16.385 36.9147 16.385C36.3814 16.385 35.9414 16.5716 35.5947 16.945C35.2614 17.305 35.0947 17.8383 35.0947 18.545H34.5747C34.5747 17.5183 34.7214 16.6516 35.0147 15.945C35.308 15.225 35.7214 14.6783 36.2547 14.305C36.8014 13.9316 37.4414 13.745 38.1747 13.745C38.868 13.745 39.4814 13.9116 40.0147 14.245C40.548 14.5783 40.9614 15.0583 41.2547 15.685C41.5614 16.3116 41.7147 17.065 41.7147 17.945V24.625H38.7347ZM32.1147 24.625V10.325H35.0947V24.625H32.1147Z" fill="#272727"/>
<path d="M48.5334 24.905C47.5201 24.905 46.6201 24.6716 45.8334 24.205C45.0468 23.7383 44.4334 23.0916 43.9934 22.265C43.5534 21.425 43.3334 20.445 43.3334 19.325C43.3334 18.205 43.5534 17.225 43.9934 16.385C44.4334 15.545 45.0468 14.8983 45.8334 14.445C46.6201 13.9783 47.5201 13.745 48.5334 13.745C49.5601 13.745 50.4601 13.9783 51.2334 14.445C52.0201 14.8983 52.6334 15.545 53.0734 16.385C53.5134 17.225 53.7334 18.205 53.7334 19.325C53.7334 20.445 53.5134 21.425 53.0734 22.265C52.6334 23.0916 52.0201 23.7383 51.2334 24.205C50.4601 24.6716 49.5601 24.905 48.5334 24.905ZM48.5334 22.245C49.2001 22.245 49.7201 22.005 50.0934 21.525C50.4801 21.0316 50.6734 20.2983 50.6734 19.325C50.6734 18.3516 50.4801 17.625 50.0934 17.145C49.7201 16.6516 49.2001 16.405 48.5334 16.405C47.8668 16.405 47.3401 16.6516 46.9534 17.145C46.5801 17.625 46.3934 18.3516 46.3934 19.325C46.3934 20.2983 46.5801 21.0316 46.9534 21.525C47.3401 22.005 47.8668 22.245 48.5334 22.245Z" fill="#272727"/>
<path d="M61.3569 24.905C60.3035 24.905 59.4502 24.4916 58.7969 23.665C58.1435 22.825 57.8169 21.6383 57.8169 20.105V18.545C57.8169 16.9983 58.1435 15.8116 58.7969 14.985C59.4502 14.1583 60.3035 13.745 61.3569 13.745C62.1835 13.745 62.8969 13.9716 63.4969 14.425C64.1102 14.865 64.5835 15.4983 64.9169 16.325C65.2502 17.1516 65.4169 18.1516 65.4169 19.325C65.4169 20.485 65.2502 21.485 64.9169 22.325C64.5835 23.1516 64.1102 23.7916 63.4969 24.245C62.8969 24.685 62.1835 24.905 61.3569 24.905ZM55.8569 28.125C55.5807 28.125 55.3569 27.9011 55.3569 27.625V14.525C55.3569 14.2488 55.5807 14.025 55.8569 14.025H57.8369C58.113 14.025 58.3369 14.2488 58.3369 14.525V16.805L57.9569 19.325L58.3369 21.685V27.625C58.3369 27.9011 58.113 28.125 57.8369 28.125H55.8569ZM60.2369 22.225C60.8769 22.225 61.3902 21.985 61.7769 21.505C62.1635 21.0116 62.3569 20.285 62.3569 19.325C62.3569 18.365 62.1635 17.645 61.7769 17.165C61.3902 16.6716 60.8769 16.425 60.2369 16.425C59.6102 16.425 59.1035 16.6716 58.7169 17.165C58.3302 17.645 58.1369 18.365 58.1369 19.325C58.1369 20.285 58.3302 21.0116 58.7169 21.505C59.1035 21.985 59.6102 22.225 60.2369 22.225Z" fill="#EAEAEA"/>
<path d="M48.5334 24.905C47.5201 24.905 46.6201 24.6716 45.8334 24.205C45.0468 23.7383 44.4334 23.0916 43.9934 22.265C43.5534 21.425 43.3334 20.445 43.3334 19.325C43.3334 18.205 43.5534 17.225 43.9934 16.385C44.4334 15.545 45.0468 14.8983 45.8334 14.445C46.6201 13.9783 47.5201 13.745 48.5334 13.745C49.5601 13.745 50.4601 13.9783 51.2334 14.445C52.0201 14.8983 52.6334 15.545 53.0734 16.385C53.5134 17.225 53.7334 18.205 53.7334 19.325C53.7334 20.445 53.5134 21.425 53.0734 22.265C52.6334 23.0916 52.0201 23.7383 51.2334 24.205C50.4601 24.6716 49.5601 24.905 48.5334 24.905ZM48.5334 22.245C49.2001 22.245 49.7201 22.005 50.0934 21.525C50.4801 21.0316 50.6734 20.2983 50.6734 19.325C50.6734 18.3516 50.4801 17.625 50.0934 17.145C49.7201 16.6516 49.2001 16.405 48.5334 16.405C47.8668 16.405 47.3401 16.6516 46.9534 17.145C46.5801 17.625 46.3934 18.3516 46.3934 19.325C46.3934 20.2983 46.5801 21.0316 46.9534 21.525C47.3401 22.005 47.8668 22.245 48.5334 22.245Z" fill="#272727"/>
<path d="M49.4375 22.125C50.4875 22.425 51.625 23.1667 52.0625 23.5C53.7812 21.7188 53.8125 20.0312 53.6875 18.25C53.5875 16.825 52.5625 15.5521 52.0625 15.0938C51.4625 15.5938 49.6667 16.1979 48.8438 16.4375C51.1562 16.7188 50.75 20.375 50.3438 21.125C50.0187 21.725 49.6042 22.0417 49.4375 22.125Z" fill="#D9D9D9"/>
<path d="M57 28.0469C56.95 27.7469 55.9167 26.5677 55.4062 26.0156V27.0469C55.4062 27.5992 55.854 28.0469 56.4062 28.0469H57Z" fill="#272727"/>
<path d="M0.593371 10.8105L3.98812 10.8105L8.23913 24.6221L4.84438 24.6221L0.593371 10.8105Z" fill="#656565"/>
</svg>
